<?xml version="1.0" encoding="utf-8"?>
<!-- Generator: Adobe Illustrator 27.5.0, SVG Export Plug-In . SVG Version: 6.00 Build 0)  -->
<svg version="1.1" xmlns="http://www.w3.org/2000/svg" xmlns:xlink="http://www.w3.org/1999/xlink" x="0px" y="0px"
	 viewBox="0 0 500 500" style="enable-background:new 0 0 500 500;" xml:space="preserve">
<g id="Background_Complete">
	<g>
		<rect y="382.398" style="fill:#EBEBEB;" width="500" height="0.25"/>
		<rect x="372.333" y="398.494" style="fill:#EBEBEB;" width="77.568" height="0.25"/>
		<rect x="278" y="394.986" style="fill:#EBEBEB;" width="55.333" height="0.25"/>
		<rect x="356.762" y="389.208" style="fill:#EBEBEB;" width="59.016" height="0.25"/>
		<rect x="52.459" y="390.888" style="fill:#EBEBEB;" width="12.693" height="0.25"/>
		<rect x="74.056" y="390.888" style="fill:#EBEBEB;" width="71.611" height="0.25"/>
		<rect x="173.162" y="395.111" style="fill:#EBEBEB;" width="46.838" height="0.25"/>
		<path style="fill:#EBEBEB;" d="M237.014,337.8H43.915c-3.147,0-5.708-2.561-5.708-5.708V60.66c0-3.147,2.561-5.708,5.708-5.708
			h193.099c3.146,0,5.707,2.561,5.707,5.708v271.432C242.721,335.239,240.16,337.8,237.014,337.8z M43.915,55.203
			c-3.01,0-5.458,2.448-5.458,5.458v271.432c0,3.01,2.448,5.458,5.458,5.458h193.099c3.009,0,5.457-2.448,5.457-5.458V60.66
			c0-3.009-2.448-5.458-5.457-5.458H43.915z"/>
		<path style="fill:#EBEBEB;" d="M453.31,337.8H260.212c-3.147,0-5.707-2.561-5.707-5.708V60.66c0-3.147,2.561-5.708,5.707-5.708
			H453.31c3.148,0,5.708,2.561,5.708,5.708v271.432C459.019,335.239,456.458,337.8,453.31,337.8z M260.212,55.203
			c-3.009,0-5.457,2.448-5.457,5.458v271.432c0,3.01,2.448,5.458,5.457,5.458H453.31c3.01,0,5.458-2.448,5.458-5.458V60.66
			c0-3.009-2.448-5.458-5.458-5.458H260.212z"/>
	</g>
	<g>
		<g>
			<rect x="56.34" y="96.778" style="fill:#E6E6E6;" width="132.591" height="216.378"/>
			<rect x="58.231" y="96.778" style="fill:#F0F0F0;" width="134.747" height="216.378"/>
			<rect x="56.34" y="313.156" style="fill:#E6E6E6;" width="132.591" height="6.134"/>
			<rect x="64.971" y="313.156" style="fill:#F0F0F0;" width="134.747" height="6.134"/>
			
				<rect x="23.079" y="143.257" transform="matrix(-1.836970e-16 1 -1 -1.836970e-16 330.5707 79.3627)" style="fill:#FAFAFA;" width="205.05" height="123.419"/>
			<polygon style="fill:#FFFFFF;" points="91.725,307.493 107.488,102.442 132.087,102.442 116.323,307.493 			"/>
			<path style="fill:#F0F0F0;" d="M66.517,301.855c-0.223,0-0.405-0.181-0.405-0.405V106.127c0-0.223,0.181-0.405,0.405-0.405
				c0.224,0,0.405,0.181,0.405,0.405V301.45C66.922,301.674,66.74,301.855,66.517,301.855z"/>
			<polygon style="fill:#FFFFFF;" points="121.607,307.493 137.371,102.442 146.961,102.442 131.197,307.493 			"/>
			
				<rect x="84.429" y="204.607" transform="matrix(-1.836970e-16 1 -1 -1.836970e-16 391.9205 18.0129)" style="fill:#E6E6E6;" width="205.05" height="0.719"/>
			<polygon style="opacity:0.6;fill:#EBEBEB;" points="194.317,110.981 61.725,110.981 61.204,104.643 193.796,104.643 			"/>
			<polygon style="opacity:0.6;fill:#EBEBEB;" points="194.317,121.377 61.725,121.377 61.204,115.038 193.796,115.038 			"/>
			<polygon style="opacity:0.6;fill:#EBEBEB;" points="194.317,131.772 61.725,131.772 61.204,125.434 193.796,125.434 			"/>
			<polygon style="opacity:0.6;fill:#EBEBEB;" points="194.317,142.167 61.725,142.167 61.204,135.829 193.796,135.829 			"/>
			<polygon style="opacity:0.6;fill:#EBEBEB;" points="194.317,152.562 61.725,152.562 61.204,146.224 193.796,146.224 			"/>
			<polygon style="opacity:0.6;fill:#EBEBEB;" points="194.317,162.957 61.725,162.957 61.204,156.619 193.796,156.619 			"/>
		</g>
		<g>
			<g>
				<rect x="273.755" y="96.778" style="fill:#F0F0F0;" width="127.06" height="285.621"/>
				<rect x="276.436" y="96.778" style="fill:#F5F5F5;" width="124.378" height="285.621"/>
				
					<rect x="202.297" y="184.979" transform="matrix(-1.836970e-16 1 -1 -1.836970e-16 578.214 -99.0375)" style="fill:#F0F0F0;" width="272.658" height="109.219"/>
				<path style="fill:#FAFAFA;" d="M294.749,153.967L294.749,153.967c0-16.445,13.331-29.776,29.776-29.776h28.201
					c16.445,0,29.776,13.331,29.776,29.776l0,0H294.749z"/>
				
					<rect x="306.057" y="282.523" transform="matrix(-1.836970e-16 1 -1 -1.836970e-16 665.0253 -12.2262)" style="fill:#F5F5F5;" width="65.137" height="87.754"/>
				
					<rect x="294.749" y="172.333" transform="matrix(-1 -1.224647e-16 1.224647e-16 -1 628.2043 457.7611)" style="fill:#F5F5F5;" width="38.707" height="113.094"/>
				
					<rect x="343.795" y="172.333" transform="matrix(-1 -1.224647e-16 1.224647e-16 -1 726.2972 457.7611)" style="fill:#F5F5F5;" width="38.707" height="113.094"/>
				<path style="fill:#E0E0E0;" d="M368.465,228.372h15.854c1.352,0,2.459-1.107,2.459-2.459l0,0c0-1.352-1.107-2.459-2.459-2.459
					h-15.854c-1.353,0-2.459,1.107-2.459,2.459l0,0C366.005,227.266,367.112,228.372,368.465,228.372z"/>
				
					<rect x="255.924" y="238.605" transform="matrix(-1.836970e-16 1 -1 -1.836970e-16 631.8408 -152.6642)" style="fill:#F0F0F0;" width="272.658" height="1.966"/>
			</g>
		</g>
		<g>
			<g>
				<polygon style="fill:#EBEBEB;" points="457.208,235.103 411.958,235.103 415.966,182.147 453.2,182.147 				"/>
				<polygon style="fill:#F5F5F5;" points="447.278,235.103 439.499,235.103 437.851,182.147 445.029,182.147 				"/>
			</g>
			<rect x="432.32" y="235.103" style="fill:#F0F0F0;" width="4.525" height="147.295"/>
			<path style="fill:#F0F0F0;" d="M436.806,309.51h-4.447c-1.102,0-2.003-0.901-2.003-2.003v-4.447c0-1.102,0.901-2.003,2.003-2.003
				h4.447c1.102,0,2.003,0.902,2.003,2.003v4.447C438.81,308.609,437.908,309.51,436.806,309.51z"/>
			<path style="fill:#F0F0F0;" d="M436.806,323.054h-4.447c-1.102,0-2.003-0.902-2.003-2.003v-4.447
				c0-1.102,0.901-2.003,2.003-2.003h4.447c1.102,0,2.003,0.901,2.003,2.003v4.447C438.81,322.152,437.908,323.054,436.806,323.054z
				"/>
			<path style="fill:#F0F0F0;" d="M441.748,382.398h-14.329l0,0c0-1.686,1.367-3.053,3.053-3.053h8.222
				C440.38,379.345,441.748,380.712,441.748,382.398L441.748,382.398z"/>
			<rect x="432.32" y="235.103" style="fill:#E0E0E0;" width="4.525" height="2.765"/>
		</g>
		<g>
			<g>
				<polygon style="fill:#EBEBEB;" points="260.869,235.103 215.619,235.103 219.627,182.147 256.861,182.147 				"/>
				<polygon style="fill:#F5F5F5;" points="250.939,235.103 243.16,235.103 241.512,182.147 248.69,182.147 				"/>
			</g>
			<rect x="235.982" y="235.103" style="fill:#F0F0F0;" width="4.525" height="147.295"/>
			<path style="fill:#F0F0F0;" d="M240.467,309.51h-4.447c-1.102,0-2.003-0.901-2.003-2.003v-4.447c0-1.102,0.902-2.003,2.003-2.003
				h4.447c1.102,0,2.003,0.902,2.003,2.003v4.447C242.471,308.609,241.569,309.51,240.467,309.51z"/>
			<path style="fill:#F0F0F0;" d="M240.467,323.054h-4.447c-1.102,0-2.003-0.902-2.003-2.003v-4.447
				c0-1.102,0.902-2.003,2.003-2.003h4.447c1.102,0,2.003,0.901,2.003,2.003v4.447C242.471,322.152,241.569,323.054,240.467,323.054
				z"/>
			<path style="fill:#F0F0F0;" d="M245.409,382.398h-14.329l0,0c0-1.686,1.367-3.053,3.053-3.053h8.222
				C244.042,379.345,245.409,380.712,245.409,382.398L245.409,382.398z"/>
			<rect x="235.982" y="235.103" style="fill:#E0E0E0;" width="4.525" height="2.765"/>
		</g>
	</g>
</g>
<g id="Background_Simple" style="display:none;">
	<g id="_x3C_Group_x3E__1_" style="display:inline;">
		<path id="_x3C_Path_x3E__10_" style="fill:#407BFF;" d="M403.563,111.225c-67.581-90.483-202.987-80.718-219.095,47.635
			c-8.304,66.165-158.084,8.627-119.24,84.471c53.534,104.527,141.067-29.096,207.385-36.66
			c45.459-5.184,75.04,68.446,132.928,30.93C451.302,207.945,431.657,148.841,403.563,111.225z"/>
		<path id="_x3C_Path_x3E__9_" style="opacity:0.9;fill:#FFFFFF;" d="M403.563,111.225
			c-67.581-90.483-202.987-80.718-219.095,47.635c-8.304,66.165-158.084,8.627-119.24,84.471
			c53.534,104.527,141.067-29.096,207.385-36.66c45.459-5.184,75.04,68.446,132.928,30.93
			C451.302,207.945,431.657,148.841,403.563,111.225z"/>
	</g>
</g>
<g id="Shadow_1_">
	<ellipse id="_x3C_Path_x3E__163_" style="fill:#F5F5F5;" cx="250" cy="416.238" rx="193.889" ry="11.323"/>
</g>
<g id="Responsive">
	<g>
		<polygon style="opacity:0.1;fill:#407BFF;" points="286.609,103.798 284.732,161.54 329.997,158.41 		"/>
		<polygon style="opacity:0.1;fill:#407BFF;" points="254.504,281.432 255.671,238.719 86.087,241.021 		"/>
		<g>
			<g>
				<path style="fill:#407BFF;" d="M285.125,241.041H86.443c-1.735,0-3.141-1.406-3.141-3.141V108.946h204.963V237.9
					C288.265,239.635,286.859,241.041,285.125,241.041z"/>
				<path style="opacity:0.7;fill:#FFFFFF;" d="M285.125,241.041H86.443c-1.735,0-3.141-1.406-3.141-3.141V108.946h204.963V237.9
					C288.265,239.635,286.859,241.041,285.125,241.041z"/>
			</g>
			<path style="opacity:0.9;fill:#FFFFFF;" d="M267.665,169.25H103.902c-1.564,0-2.832-1.268-2.832-2.832v-46.021
				c0-1.564,1.268-2.832,2.832-2.832h163.763c1.564,0,2.832,1.268,2.832,2.832v46.021
				C270.497,167.982,269.229,169.25,267.665,169.25z"/>
			<path style="opacity:0.7;fill:#407BFF;" d="M149.551,192.258h-45.649c-1.564,0-2.832-1.268-2.832-2.832v-9.412
				c0-1.564,1.268-2.832,2.832-2.832h45.649c1.564,0,2.832,1.268,2.832,2.832v9.412C152.383,190.99,151.115,192.258,149.551,192.258
				z"/>
			<path style="opacity:0.7;fill:#407BFF;" d="M208.608,192.258h-45.649c-1.564,0-2.832-1.268-2.832-2.832v-9.412
				c0-1.564,1.268-2.832,2.832-2.832h45.649c1.564,0,2.832,1.268,2.832,2.832v9.412C211.44,190.99,210.172,192.258,208.608,192.258z
				"/>
			<path style="opacity:0.7;fill:#407BFF;" d="M267.665,192.258h-45.649c-1.564,0-2.832-1.268-2.832-2.832v-9.412
				c0-1.564,1.268-2.832,2.832-2.832h45.649c1.564,0,2.832,1.268,2.832,2.832v9.412C270.497,190.99,269.229,192.258,267.665,192.258
				z"/>
			<path style="opacity:0.3;fill:#407BFF;" d="M152.383,241.041H101.07v-39.849c0-1.564,1.268-2.832,2.832-2.832h45.649
				c1.564,0,2.832,1.268,2.832,2.832V241.041z"/>
			<path style="opacity:0.3;fill:#407BFF;" d="M211.44,241.041h-51.313v-39.849c0-1.564,1.268-2.832,2.832-2.832h45.649
				c1.564,0,2.832,1.268,2.832,2.832V241.041z"/>
			<path style="opacity:0.3;fill:#407BFF;" d="M270.497,241.041h-51.313v-39.849c0-1.564,1.268-2.832,2.832-2.832h45.649
				c1.564,0,2.832,1.268,2.832,2.832V241.041z"/>
			<rect x="140.776" y="96.562" style="fill:#407BFF;" width="5" height="1"/>
			<rect x="124.109" y="96.562" style="fill:#407BFF;" width="12.25" height="1"/>
			<path style="fill:#407BFF;" d="M279.381,100.062H92.186c-4.906,0-8.884,3.978-8.884,8.884l0,0h204.963l0,0
				C288.265,104.039,284.288,100.062,279.381,100.062z"/>
			<g>
				<path style="fill:#FFFFFF;" d="M95.888,104.504c0,0.979-0.794,1.772-1.772,1.772c-0.979,0-1.772-0.794-1.772-1.772
					s0.794-1.772,1.772-1.772C95.094,102.731,95.888,103.525,95.888,104.504z"/>
				<path style="fill:#FFFFFF;" d="M101.611,104.414c0,0.979-0.793,1.772-1.772,1.772c-0.979,0-1.772-0.794-1.772-1.772
					c0-0.979,0.793-1.772,1.772-1.772C100.818,102.642,101.611,103.435,101.611,104.414z"/>
				<path style="fill:#FFFFFF;" d="M107.335,104.414c0,0.979-0.794,1.772-1.772,1.772s-1.772-0.794-1.772-1.772
					c0-0.979,0.794-1.772,1.772-1.772S107.335,103.435,107.335,104.414z"/>
			</g>
		</g>
		<g>
			<g>
				<path style="fill:#407BFF;" d="M327.907,282.202H256.84c-2.183,0-3.952-1.77-3.952-3.952V168.378h78.972V278.25
					C331.859,280.432,330.09,282.202,327.907,282.202z"/>
				<path style="opacity:0.8;fill:#FFFFFF;" d="M327.907,282.202H256.84c-2.183,0-3.952-1.77-3.952-3.952V168.378h78.972V278.25
					C331.859,280.432,330.09,282.202,327.907,282.202z"/>
			</g>
			<path style="opacity:0.9;fill:#FFFFFF;" d="M322.696,199.084h-60.646c-1.083,0-1.961-0.878-1.961-1.961V176.28
				c0-1.083,0.878-1.961,1.961-1.961h60.646c1.083,0,1.961,0.878,1.961,1.961v20.843
				C324.658,198.206,323.78,199.084,322.696,199.084z"/>
			<path style="opacity:0.7;fill:#407BFF;" d="M321.094,222.953h-57.441c-1.968,0-3.563-1.595-3.563-3.563v-11.844
				c0-1.968,1.595-3.563,3.563-3.563h57.441c1.968,0,3.563,1.595,3.563,3.563v11.844
				C324.658,221.358,323.062,222.953,321.094,222.953z"/>
			<path style="opacity:0.7;fill:#407BFF;" d="M321.094,248.204h-57.441c-1.968,0-3.563-1.595-3.563-3.563v-11.844
				c0-1.968,1.595-3.564,3.563-3.564h57.441c1.968,0,3.563,1.595,3.563,3.564v11.844
				C324.658,246.609,323.062,248.204,321.094,248.204z"/>
			<path style="opacity:0.7;fill:#407BFF;" d="M321.094,273.455h-57.441c-1.968,0-3.563-1.595-3.563-3.564v-11.844
				c0-1.968,1.595-3.563,3.563-3.563h57.441c1.968,0,3.563,1.595,3.563,3.563v11.844
				C324.658,271.86,323.062,273.455,321.094,273.455z"/>
			<path style="fill:#407BFF;" d="M326.664,157.199h-68.581c-2.869,0-5.195,2.326-5.195,5.195v5.984h78.972v-5.984
				C331.859,159.525,329.534,157.199,326.664,157.199z"/>
		</g>
	</g>
</g>
<g id="Character_1_">
	<g>
		<polygon style="fill:#FFB573;" points="363.122,410.232 355.796,410.232 355.814,393.265 363.14,393.265 		"/>
		<polygon style="fill:#FFB573;" points="421.98,396.222 414.967,398.343 407.246,382.952 414.259,380.831 		"/>
		<path style="fill:#407BFF;" d="M412.256,399.613c-0.534,0.161-1.056,0.22-1.442,0.047c-0.306-0.138-0.498-0.403-0.57-0.786
			c-0.055-0.285,0.058-0.462,0.163-0.562c0.665-0.634,3.293,0.086,3.591,0.17c0.066,0.02,0.113,0.078,0.119,0.148
			c0.006,0.069-0.03,0.138-0.091,0.173C413.569,399.07,412.904,399.417,412.256,399.613z M410.839,398.458
			c-0.087,0.026-0.156,0.061-0.205,0.107c-0.039,0.037-0.08,0.096-0.054,0.229c0.052,0.273,0.176,0.451,0.381,0.543
			c0.466,0.212,1.393-0.022,2.522-0.625C412.573,398.487,411.376,398.296,410.839,398.458z"/>
		<path style="fill:#407BFF;" d="M413.988,398.82c-0.027,0.008-0.056,0.01-0.084,0.004c-0.828-0.18-2.628-1.313-2.681-2.151
			c-0.01-0.151,0.031-0.432,0.416-0.6c0.252-0.112,0.506-0.109,0.762,0.002c0.987,0.428,1.677,2.429,1.706,2.514
			c0.021,0.06,0.007,0.128-0.036,0.177C414.048,398.792,414.02,398.811,413.988,398.82z M411.838,396.367
			c-0.025,0.007-0.049,0.018-0.074,0.028c-0.209,0.092-0.202,0.199-0.199,0.243c0.031,0.495,1.225,1.401,2.088,1.738
			c-0.235-0.575-0.763-1.702-1.396-1.977C412.113,396.336,411.975,396.326,411.838,396.367z"/>
		<path style="fill:#263238;" d="M414.259,397.671l7.879-2.383c0.287-0.087,0.586,0.04,0.721,0.305l2.996,5.898
			c0.311,0.612-0.039,1.385-0.705,1.574c-2.763,0.784-4.141,1.025-7.606,2.072c-2.132,0.645-8.962,4.1-11.905,4.991
			c-2.879,0.871-4.08-1.943-2.943-2.575c5.098-2.832,9.208-7.002,10.536-9.101C413.471,398.074,413.839,397.798,414.259,397.671z"/>
		<path style="fill:#407BFF;" d="M352.778,410.664c-0.727,0-1.395-0.112-1.76-0.45c-0.233-0.214-0.329-0.499-0.287-0.845
			c0.025-0.206,0.131-0.366,0.306-0.461c0.911-0.5,3.791,0.996,4.117,1.169c0.064,0.034,0.098,0.106,0.084,0.179
			c-0.013,0.073-0.071,0.132-0.144,0.147C354.466,410.526,353.585,410.664,352.778,410.664z M351.519,409.147
			c-0.135,0-0.246,0.02-0.327,0.064c-0.071,0.039-0.107,0.095-0.117,0.186c-0.028,0.235,0.032,0.418,0.185,0.559
			c0.433,0.4,1.636,0.468,3.265,0.199C353.532,409.672,352.212,409.147,351.519,409.147z"/>
		<path style="fill:#407BFF;" d="M355.059,410.405c-0.024,0-0.048-0.005-0.071-0.015c-0.866-0.397-2.549-1.981-2.378-2.81
			c0.04-0.194,0.189-0.436,0.667-0.484c0.35-0.043,0.675,0.064,0.949,0.297c0.898,0.766,1.009,2.738,1.013,2.823
			c0.003,0.061-0.027,0.121-0.079,0.157C355.13,410.395,355.094,410.405,355.059,410.405z M353.402,407.435
			c-0.034,0-0.069,0.003-0.105,0.005c-0.314,0.033-0.339,0.154-0.348,0.195c-0.102,0.498,1.034,1.742,1.912,2.284
			c-0.068-0.576-0.278-1.757-0.867-2.259C353.817,407.51,353.622,407.435,353.402,407.435z"/>
		<path style="fill:#263238;" d="M355.881,409.384h8.001c0.3,0,0.55,0.208,0.602,0.5l1.16,6.512c0.12,0.675-0.421,1.315-1.111,1.303
			c-2.884-0.049-7.047-0.218-10.675-0.218c-4.242,0-7.915,0.231-12.89,0.231c-3.008,0-3.709-3.041-2.438-3.316
			c5.787-1.254,10.473-1.388,15.56-4.442C354.644,409.623,355.249,409.384,355.881,409.384z"/>
		<path style="fill:#FFB573;" d="M381.939,142.922c-1.287,5.36-2.102,12.003,1.491,15.58c0,0-2.394,5.437-12.353,5.437
			c-9.101,0-4.305-5.437-4.305-5.437c6.04-1.427,6.054-8.819,5.196-12.984L381.939,142.922z"/>
		<g>
			<polygon style="opacity:0.2;" points="355.815,393.27 355.804,402.016 363.134,402.016 363.145,393.27 			"/>
			<polygon style="opacity:0.2;" points="414.263,380.835 407.247,382.957 411.23,390.889 418.246,388.767 			"/>
		</g>
		<path style="fill:#FFB573;" d="M398.079,165.198l-9.403,5.407c0,0,9.868,23.026,8.893,26.714
			c-1.326,5.019-1.97,15.213-4.046,21.841c0.804,0.911,3.547,2.537,4.649,2.502c4.028-8.013,10.519-21.648,10.14-26.286
			C407.448,184.8,398.079,165.198,398.079,165.198z"/>
		<path style="fill:#FFB573;" d="M393.524,219.16l-6.439,2.659l6.455,5.374c0,0,5.56-2.516,4.543-7.235L393.524,219.16z"/>
		<polygon style="fill:#FFB573;" points="383.482,227.584 389.566,232.148 393.54,227.194 387.085,221.819 		"/>
		<path style="fill:#407BFF;" d="M396.475,160.159c6.821,1.388,12.362,25.752,12.362,25.752l-15.353,7.385
			c0,0-5.268-11.734-7.582-20.359C383.477,163.9,389.159,158.67,396.475,160.159z"/>
		<path style="opacity:0.2;" d="M391.028,168.545c-2.859-3.043-1.553,8.934-0.839,16.876c0.616,1.577,1.206,3.011,1.709,4.211
			C396.017,183.651,394.967,172.739,391.028,168.545z"/>
		<g>
			<path style="fill:#407BFF;" d="M366.987,160.716c0.034-2.597-0.38-3.825,0.334-4.783c0.715-0.958,14.792-2.104,17.222-1.012
				c0.823,0.37,1.309,4.112,0.269,5.783C383.3,163.134,366.987,160.716,366.987,160.716z"/>
			<path style="opacity:0.2;" d="M366.987,160.716c0.034-2.597-0.38-3.825,0.334-4.783c0.715-0.958,14.792-2.104,17.222-1.012
				c0.823,0.37,1.309,4.112,0.269,5.783C383.3,163.134,366.987,160.716,366.987,160.716z"/>
		</g>
		<path style="fill:#407BFF;" d="M355.412,160.536c0,0-9.622,22.125-3.224,63.328c11.808,0,33.443,0,39.188,0
			c0.535-6.016-1.952-35.361,5.099-63.705c0,0-6.658-1.348-13.045-1.657c-4.997-0.241-12.239-0.401-16.659,0.001
			C360.944,159.032,355.412,160.536,355.412,160.536z"/>
		<path style="fill:#FFB573;" d="M360.996,170.821l-9.709-3.914c0,0-13.114,22.281-15.854,24.154
			c-6.348-3.478-8.484-2.066-13.427-5.718c-1.25,0.125-3.193,1.869-3.859,2.761c3.99,7.694,17.299,17.222,23.865,11.415
			C350.142,192.328,360.996,170.821,360.996,170.821z"/>
		<path style="opacity:0.2;" d="M362.219,168.18c-1.464-3.76-4.515-5.33-7.829-4.78c-1.463,4.61-4.04,14.74-4.361,29.99l3.805,0.86
			C353.833,194.25,364.726,174.61,362.219,168.18z"/>
		<path style="fill:#407BFF;" d="M363.891,165.55c2.18,6.555-11.179,25.859-11.179,25.859l-14.303-7.958
			c0,0,3.84-9.629,9.223-17.152C353.159,158.574,361.498,158.356,363.891,165.55z"/>
		<path style="fill:#FFB573;" d="M322.25,185.552l-6.528-3.774l-3.818,7.6c0,0,2.727,1.123,8.173,1.292L322.25,185.552z"/>
		<polygon style="fill:#FFB573;" points="312.5,181.778 307.833,186.223 311.905,189.377 315.722,181.778 		"/>
		<path style="fill:#263238;" d="M365.704,135.212c-0.06,0.59-0.421,1.05-0.805,1.028c-0.385-0.022-0.648-0.518-0.588-1.108
			s0.421-1.05,0.805-1.028C365.501,134.126,365.764,134.623,365.704,135.212z"/>
		<path style="fill:#ED893E;" d="M366.223,135.259c0,0-1.684,3.326-3.324,4.883c0.942,1.034,2.757,0.691,2.757,0.691
			L366.223,135.259z"/>
		<path style="fill:#263238;" d="M365.038,133.167c-0.05-0.006-0.1-0.023-0.144-0.053c-0.156-0.104-0.193-0.318-0.082-0.48
			c1.112-1.613,2.715-1.638,2.783-1.639c0.187-0.008,0.341,0.153,0.333,0.345c-0.008,0.191-0.168,0.347-0.359,0.349l0,0
			c-0.053,0-1.303,0.034-2.191,1.321C365.299,133.126,365.165,133.182,365.038,133.167z"/>
		<path style="fill:#FFB573;" d="M385.605,134.696c-1.181,7.22-1.507,11.49-5.536,14.998c-6.06,5.277-14.643,1.443-15.632-5.89
			c-0.89-6.6,1.191-17.298,8.558-19.773C380.255,121.593,386.786,127.476,385.605,134.696z"/>
		<path style="fill:#263238;" d="M370.556,137.808c-1.5-4.752-3.444-12.085,1.889-14.808c5.333-2.722,9.524,1.06,15.333,4.556
			c6.556,3.944,2.556,16.444-5.343,19.383C375.797,149.408,369.333,144.449,370.556,137.808z"/>
		<path style="fill:#263238;" d="M371.138,129.035c-4.702,1.276-7.941-1.743-5.623-5.227c2.944-4.424,14.501-3.266,18.838,1.524
			C388.692,130.121,374.402,132.371,371.138,129.035z"/>
		<path style="fill:#263238;" d="M372.932,125.502c-5.741-1.063-8.092-5.741-3.278-8.641c4.538-2.734,17.297,2.05,19.423,9.543
			S374.674,130.847,372.932,125.502z"/>
		<path style="fill:#263238;" d="M388.231,129.087c0.871-0.698,4.327-1.699,4.719,2.174
			C392.949,131.261,391.403,129.433,388.231,129.087z"/>
		<path style="fill:#263238;" d="M390.709,124.271c0.692,0.876,1.671,4.338-2.204,4.705
			C388.505,128.975,390.343,127.441,390.709,124.271z"/>
		<path style="fill:#FFB573;" d="M374.694,137.484c-0.548,1.675-1.799,2.97-3.075,3.641c-1.92,1.009-3.245-0.584-3.016-2.622
			c0.206-1.834,1.453-4.57,3.527-4.737C374.173,133.6,375.32,135.568,374.694,137.484z"/>
		<g>
			<path style="fill:#263238;" d="M366.09,223.864c0,0,5.848,55.992,9.489,76.969c3.987,22.971,31.964,89.402,31.964,89.402
				l12.845-3.884c0,0-20.034-61.051-21.884-83.795c-2.008-24.684-7.126-78.691-7.126-78.691H366.09z"/>
			<path style="opacity:0.2;" d="M375.103,243.44c-0.579-0.877-1.132-1.178-1.659-1.028c-0.036,0.011-0.073,0.024-0.109,0.039
				c-0.114,0.046-0.226,0.108-0.337,0.195c-0.101,0.079-0.201,0.18-0.3,0.292c-0.056,0.063-0.112,0.131-0.168,0.204
				c-0.077,0.101-0.153,0.211-0.229,0.331c-0.166,0.263-0.33,0.568-0.49,0.912c-0.086,0.186-0.171,0.382-0.256,0.589
				c-0.101,0.248-0.2,0.51-0.298,0.786c-0.13,0.368-0.258,0.758-0.383,1.17c-0.032,0.106-0.064,0.214-0.096,0.323
				c-0.066,0.225-0.131,0.455-0.195,0.691c-0.053,0.195-0.106,0.394-0.158,0.596c-0.102,0.396-0.203,0.804-0.301,1.223
				c-0.105,0.446-0.207,0.904-0.307,1.373c-0.035,0.164-0.07,0.33-0.104,0.496c-0.124,0.6-0.245,1.213-0.362,1.838l0,0l0,0l0,0.004
				c1.606,13.939,3.542,29.918,5.22,41.066c0.122-0.361,0.24-0.744,0.356-1.146c0.464-1.605,0.883-3.52,1.251-5.649
				C378.668,273.372,378.858,249.169,375.103,243.44z"/>
		</g>
		<g>
			<path style="fill:#263238;" d="M352.188,223.864c0,0-3.422,54.78-3.61,77.123c-0.195,23.24,4.57,99.335,4.57,99.335h12.412
				c0,0,3.748-74.737,5.306-97.561c1.698-24.882,7.082-78.897,7.082-78.897H352.188z"/>
		</g>
		<path style="fill:#407BFF;" d="M366.547,396.519c0.057,0-0.179,4.056-0.179,4.056h-14.306l-0.401-4.556L366.547,396.519z"/>
		<path style="fill:#407BFF;" d="M419.412,381.816c0.315,0.632,1.678,4.586,1.678,4.586l-14.119,4.27l-2.314-3.798L419.412,381.816z
			"/>
	</g>
</g>
</svg>
