<?xml version="1.0" encoding="utf-8"?>
<!-- Generator: Adobe Illustrator 27.5.0, SVG Export Plug-In . SVG Version: 6.00 Build 0)  -->
<svg version="1.1" xmlns="http://www.w3.org/2000/svg" xmlns:xlink="http://www.w3.org/1999/xlink" x="0px" y="0px"
	 viewBox="0 0 500 500" style="enable-background:new 0 0 500 500;" xml:space="preserve">
<g id="Background_Complete">
	<g>
		<rect y="382.398" style="fill:#EBEBEB;" width="500" height="0.25"/>
		<rect x="416.779" y="398.494" style="fill:#EBEBEB;" width="33.122" height="0.25"/>
		<rect x="322.527" y="401.208" style="fill:#EBEBEB;" width="8.693" height="0.25"/>
		<rect x="396.586" y="389.208" style="fill:#EBEBEB;" width="19.192" height="0.25"/>
		<rect x="52.459" y="390.888" style="fill:#EBEBEB;" width="43.193" height="0.25"/>
		<rect x="104.556" y="390.888" style="fill:#EBEBEB;" width="6.333" height="0.25"/>
		<rect x="131.471" y="395.111" style="fill:#EBEBEB;" width="93.676" height="0.25"/>
		<path style="fill:#EBEBEB;" d="M237.014,337.8H43.915c-3.147,0-5.708-2.561-5.708-5.708V60.66c0-3.147,2.561-5.708,5.708-5.708
			h193.099c3.146,0,5.707,2.561,5.707,5.708v271.432C242.721,335.239,240.16,337.8,237.014,337.8z M43.915,55.203
			c-3.01,0-5.458,2.448-5.458,5.458v271.432c0,3.01,2.448,5.458,5.458,5.458h193.099c3.009,0,5.457-2.448,5.457-5.458V60.66
			c0-3.009-2.448-5.458-5.457-5.458H43.915z"/>
		<path style="fill:#EBEBEB;" d="M453.31,337.8H260.212c-3.147,0-5.707-2.561-5.707-5.708V60.66c0-3.147,2.561-5.708,5.707-5.708
			H453.31c3.148,0,5.708,2.561,5.708,5.708v271.432C459.019,335.239,456.458,337.8,453.31,337.8z M260.212,55.203
			c-3.009,0-5.457,2.448-5.457,5.458v271.432c0,3.01,2.448,5.458,5.457,5.458H453.31c3.01,0,5.458-2.448,5.458-5.458V60.66
			c0-3.009-2.448-5.458-5.458-5.458H260.212z"/>
	</g>
	<g>
		<g>
			<path style="fill:#EBEBEB;" d="M300.513,266.953H66.338c-5.33,0-9.41-4.361-9.065-9.691L70.51,52.246
				c0.344-5.33,4.987-9.691,10.317-9.691h234.175c5.33,0,9.409,4.361,9.065,9.691L310.83,257.261
				C310.486,262.591,305.843,266.953,300.513,266.953z"/>
			<path style="fill:#FAFAFA;" d="M61.39,256.026L73.842,63.173c0.246-3.805,3.529-6.889,7.334-6.889H312.88
				c3.805,0,6.69,3.084,6.444,6.889l-12.452,192.854c-0.246,3.805-3.529,6.889-7.334,6.889H67.834
				C64.03,262.915,61.145,259.831,61.39,256.026z"/>
			<polygon style="fill:#F5F5F5;" points="165.831,184.674 94.435,184.674 101.915,63.576 173.312,63.576 			"/>
			<polygon style="fill:#F5F5F5;" points="270.986,150.839 220.78,150.839 226.041,65.683 276.246,65.683 			"/>
			<path style="fill:#F5F5F5;" d="M315.002,42.555H80.827c-5.33,0-9.973,4.361-10.317,9.691h253.557
				C324.411,46.916,320.332,42.555,315.002,42.555z"/>
			<path style="fill:#FFFFFF;" d="M86.545,47.4c-0.084,1.298-1.204,2.35-2.502,2.35c-1.298,0-2.282-1.052-2.198-2.35
				s1.204-2.35,2.502-2.35S86.628,46.102,86.545,47.4z"/>
			<path style="fill:#FFFFFF;" d="M97.991,47.4c-0.084,1.298-1.204,2.35-2.502,2.35s-2.282-1.052-2.198-2.35s1.204-2.35,2.502-2.35
				C97.09,45.05,98.075,46.102,97.991,47.4z"/>
			<path style="fill:#FFFFFF;" d="M109.437,47.4c-0.084,1.298-1.204,2.35-2.502,2.35c-1.298,0-2.282-1.052-2.198-2.35
				c0.084-1.298,1.204-2.35,2.502-2.35C108.536,45.05,109.521,46.102,109.437,47.4z"/>
		</g>
		<g>
			<path style="fill:#F5F5F5;" d="M419.629,360.222H129.662c-6.6,0-11.651-5.4-11.225-12l16.391-253.86
				c0.426-6.6,6.175-12,12.775-12h289.966c6.6,0,11.651,5.4,11.225,12l-16.391,253.86
				C431.977,354.822,426.228,360.222,419.629,360.222z"/>
			<path style="fill:#FFFFFF;" d="M123.536,346.693l15.419-238.8c0.304-4.711,4.37-8.53,9.081-8.53h286.907
				c4.711,0,8.284,3.819,7.979,8.53l-15.419,238.8c-0.304,4.711-4.37,8.53-9.081,8.53H131.515
				C126.804,355.223,123.231,351.404,123.536,346.693z"/>
			<polygon style="fill:#F5F5F5;" points="300.309,263.465 211.902,263.465 221.165,113.516 309.572,113.516 			"/>
			<polygon style="fill:#F5F5F5;" points="375.121,316.187 312.954,316.187 319.468,210.743 381.635,210.743 			"/>
			<path style="fill:#EBEBEB;" d="M437.569,82.362H147.603c-6.6,0-12.349,5.4-12.775,12h313.966
				C449.221,87.762,444.169,82.362,437.569,82.362z"/>
			<path style="fill:#FFFFFF;" d="M154.683,88.362c-0.104,1.607-1.491,2.91-3.098,2.91c-1.607,0-2.826-1.303-2.722-2.91
				c0.104-1.607,1.491-2.91,3.098-2.91C153.568,85.452,154.787,86.755,154.683,88.362z"/>
			<path style="fill:#FFFFFF;" d="M168.856,88.362c-0.104,1.607-1.491,2.91-3.098,2.91c-1.607,0-2.826-1.303-2.722-2.91
				c0.104-1.607,1.491-2.91,3.098-2.91C167.741,85.452,168.96,86.755,168.856,88.362z"/>
			<path style="fill:#FFFFFF;" d="M183.029,88.362c-0.104,1.607-1.491,2.91-3.098,2.91c-1.607,0-2.826-1.303-2.722-2.91
				c0.104-1.607,1.491-2.91,3.098-2.91C181.914,85.452,183.133,86.755,183.029,88.362z"/>
		</g>
	</g>
</g>
<g id="Background_Simple" style="display:none;">
	<g style="display:inline;">
		<path style="fill:#407BFF;" d="M390.458,216.929c-4.834-31.468-34.771-70.769-69.76-82.939
			c-38.639-13.439-71.209,10.36-108.46-4.678c-37.88-15.292-55.378-49.432-96.949-21.119c-32.043,21.823-18.624,54.239-6.03,85.583
			c22.611,56.273,79.864,157.607,161.489,160.165C363.716,356.854,401.294,287.469,390.458,216.929z"/>
		<path style="opacity:0.9;fill:#FFFFFF;" d="M390.458,216.929c-4.834-31.468-34.771-70.769-69.76-82.939
			c-38.639-13.439-71.209,10.36-108.46-4.678c-37.88-15.292-55.378-49.432-96.949-21.119c-32.043,21.823-18.624,54.239-6.03,85.583
			c22.611,56.273,79.864,157.607,161.489,160.165C363.716,356.854,401.294,287.469,390.458,216.929z"/>
	</g>
</g>
<g id="Shadow_1_">
	<ellipse id="_x3C_Path_x3E__310_" style="fill:#F5F5F5;" cx="250" cy="416.238" rx="193.889" ry="11.323"/>
</g>
<g id="Screens">
	<g>
		<g>
			<g>
				<polygon style="fill:#407BFF;" points="425.815,191.567 369.888,191.567 375.748,96.706 431.675,96.706 				"/>
				<polygon style="opacity:0.7;fill:#FFFFFF;" points="425.815,191.567 369.888,191.567 375.748,96.706 431.675,96.706 				"/>
			</g>
			<g>
				<polygon style="opacity:0.3;fill:#407BFF;" points="411.677,163.504 387.494,163.504 387.754,159.29 411.937,159.29 				"/>
				<polygon style="opacity:0.3;fill:#407BFF;" points="411.252,170.379 387.069,170.379 387.329,166.165 411.512,166.165 				"/>
				
					<ellipse transform="matrix(0.7179 -0.6961 0.6961 0.7179 18.5114 317.6934)" style="fill:#407BFF;" cx="401.284" cy="136.004" rx="18.678" ry="17.559"/>
				
					<ellipse transform="matrix(0.7179 -0.6961 0.6961 0.7179 18.5191 317.7096)" style="fill:#FFFFFF;" cx="401.284" cy="136.004" rx="13.485" ry="12.677"/>
			</g>
		</g>
		<g>
			<g>
				<polygon style="fill:#407BFF;" points="244.309,172.445 188.382,172.445 194.241,77.585 250.169,77.585 				"/>
				<polygon style="opacity:0.7;fill:#FFFFFF;" points="244.309,172.445 188.382,172.445 194.241,77.585 250.169,77.585 				"/>
			</g>
			<g>
				<polygon style="fill:#FFFFFF;" points="241.764,123.775 196.94,123.775 199.335,84.998 244.16,84.998 				"/>
				<polygon style="fill:#FFFFFF;" points="241.381,129.974 196.557,129.974 196.783,126.309 241.608,126.309 				"/>
				<polygon style="fill:#FFFFFF;" points="218.544,136.849 196.132,136.849 196.358,133.184 218.771,133.184 				"/>
				<polygon style="opacity:0.3;fill:#407BFF;" points="239.224,164.9 194.399,164.9 195.934,140.059 240.758,140.059 				"/>
				<polygon style="fill:#407BFF;" points="228.48,104.387 215.504,96.618 214.544,112.155 				"/>
			</g>
		</g>
		<g>
			<g>
				<polygon style="fill:#407BFF;" points="338.678,209.635 282.75,209.635 288.61,114.774 344.538,114.774 				"/>
				<polygon style="opacity:0.7;fill:#FFFFFF;" points="338.678,209.635 282.75,209.635 288.61,114.774 344.538,114.774 				"/>
			</g>
			<g>
				<polygon style="opacity:0.3;fill:#407BFF;" points="326.161,126.52 293.436,126.52 293.565,124.428 326.29,124.428 				"/>
				<polygon style="opacity:0.3;fill:#407BFF;" points="337.971,131.211 293.146,131.211 293.275,129.12 338.1,129.12 				"/>
				<polygon style="opacity:0.3;fill:#407BFF;" points="337.681,135.902 292.856,135.902 292.986,133.811 337.81,133.811 				"/>
				<polygon style="fill:#FFFFFF;" points="336.908,148.407 292.084,148.407 292.561,140.686 337.385,140.686 				"/>
				<polygon style="fill:#FFFFFF;" points="336.249,159.09 291.424,159.09 291.901,151.369 336.725,151.369 				"/>
				<polygon style="opacity:0.3;fill:#407BFF;" points="335.602,169.561 290.777,169.561 291.254,161.84 336.079,161.84 				"/>
				<polygon style="fill:#FFFFFF;" points="334.955,180.032 290.13,180.032 290.607,172.311 335.432,172.311 				"/>
				<path style="fill:#407BFF;" d="M320.293,200.58h-18.039c-3.202,0-5.659-2.619-5.461-5.821l0,0
					c0.198-3.202,2.979-5.821,6.181-5.821h18.039c3.202,0,5.659,2.619,5.462,5.821l0,0
					C326.275,197.961,323.494,200.58,320.293,200.58z"/>
			</g>
		</g>
		<g>
			<g>
				<polygon style="fill:#407BFF;" points="236.669,296.13 180.741,296.13 186.601,201.269 242.529,201.269 				"/>
				<polygon style="opacity:0.7;fill:#FFFFFF;" points="236.669,296.13 180.741,296.13 186.601,201.269 242.529,201.269 				"/>
			</g>
			<g>
				<polygon style="fill:#FFFFFF;" points="210.98,225.913 190.67,225.913 191.908,205.862 212.219,205.862 				"/>
				<polygon style="opacity:0.3;fill:#407BFF;" points="231.512,289.736 186.727,289.736 187.4,278.841 232.185,278.841 				"/>
				<polygon style="fill:#FFFFFF;" points="235.415,225.913 215.105,225.913 216.344,205.862 236.654,205.862 				"/>
				<polygon style="fill:#FFFFFF;" points="209.487,250.088 189.176,250.088 190.415,230.038 210.725,230.038 				"/>
				<polygon style="fill:#407BFF;" points="233.922,250.088 213.612,250.088 214.85,230.038 235.161,230.038 				"/>
				<polygon style="opacity:0.3;fill:#407BFF;" points="207.993,274.263 187.683,274.263 188.922,254.213 209.232,254.213 				"/>
				<polygon style="fill:#FFFFFF;" points="232.429,274.263 212.118,274.263 213.357,254.213 233.667,254.213 				"/>
			</g>
		</g>
		<g>
			<g>
				<polygon style="fill:#407BFF;" points="417.505,326.097 361.578,326.097 367.437,231.236 423.365,231.236 				"/>
				<polygon style="opacity:0.7;fill:#FFFFFF;" points="417.505,326.097 361.578,326.097 367.437,231.236 423.365,231.236 				"/>
			</g>
			<g>
				<polygon style="fill:#FFFFFF;" points="412.618,307.946 368.708,307.946 372.804,241.626 416.714,241.626 				"/>
				<polygon style="fill:#407BFF;" points="416.853,239.387 372.943,239.387 372.804,241.626 416.714,241.626 				"/>
				<path style="fill:#FFFFFF;" d="M375.774,315.429c-0.128,2.079-1.918,3.764-3.997,3.764c-2.079,0-3.66-1.685-3.532-3.764
					c0.128-2.079,1.918-3.764,3.997-3.764C374.321,311.665,375.902,313.35,375.774,315.429z"/>
				
					<ellipse transform="matrix(0.7179 -0.6961 0.6961 0.7179 -110.7641 357.5018)" style="fill:#FFFFFF;" cx="385.76" cy="315.429" rx="3.882" ry="3.65"/>
				
					<ellipse transform="matrix(0.7179 -0.6961 0.6961 0.7179 -106.8856 367.0736)" style="opacity:0.3;fill:#407BFF;" cx="399.51" cy="315.429" rx="3.882" ry="3.65"/>
			</g>
		</g>
		<g style="opacity:0.5;">
			<g>
				<path style="fill:#407BFF;" d="M240.133,240.305c-0.134,0-0.242-0.108-0.242-0.242s0.108-0.242,0.242-0.242
					c0.158,0,0.316-0.002,0.473-0.008c0.003,0,0.006,0,0.009,0c0.13,0,0.237,0.102,0.242,0.233c0.005,0.134-0.1,0.246-0.233,0.251
					C240.461,240.303,240.297,240.305,240.133,240.305z"/>
				<path style="fill:#407BFF;" d="M241.573,240.229c-0.123,0-0.227-0.092-0.241-0.217c-0.015-0.133,0.082-0.252,0.216-0.267
					c0.314-0.033,0.624-0.078,0.93-0.134c0.141-0.024,0.259,0.064,0.281,0.195c0.024,0.132-0.064,0.258-0.195,0.281
					c-0.317,0.058-0.639,0.104-0.965,0.14C241.59,240.229,241.581,240.229,241.573,240.229z M243.456,239.886
					c-0.108,0-0.207-0.072-0.234-0.182c-0.034-0.13,0.044-0.262,0.174-0.295c0.305-0.079,0.605-0.169,0.899-0.27
					c0.122-0.041,0.265,0.024,0.308,0.151c0.043,0.127-0.024,0.265-0.151,0.308c-0.307,0.104-0.618,0.198-0.935,0.279
					C243.496,239.884,243.476,239.886,243.456,239.886z M245.27,239.273c-0.095,0-0.184-0.056-0.224-0.148
					c-0.052-0.124,0.006-0.267,0.129-0.318c0.289-0.122,0.574-0.253,0.855-0.395c0.119-0.059,0.266-0.013,0.326,0.107
					c0.061,0.119,0.012,0.266-0.107,0.326c-0.291,0.146-0.586,0.283-0.885,0.409C245.333,239.267,245.301,239.273,245.27,239.273z
					 M246.982,238.414c-0.083,0-0.164-0.042-0.209-0.119c-0.068-0.116-0.029-0.265,0.086-0.332c0.27-0.159,0.537-0.326,0.802-0.503
					c0.112-0.073,0.263-0.044,0.337,0.067c0.074,0.112,0.044,0.263-0.067,0.337c-0.272,0.181-0.547,0.354-0.825,0.517
					C247.066,238.403,247.024,238.414,246.982,238.414z M248.578,237.349c-0.073,0-0.146-0.033-0.194-0.097
					c-0.08-0.107-0.059-0.259,0.049-0.34c0.251-0.188,0.498-0.384,0.743-0.589c0.103-0.084,0.257-0.071,0.342,0.031
					c0.086,0.102,0.071,0.256-0.031,0.342c-0.251,0.209-0.506,0.411-0.763,0.604C248.68,237.333,248.629,237.349,248.578,237.349z
					 M250.055,236.12c-0.065,0-0.131-0.026-0.179-0.079c-0.091-0.099-0.084-0.252,0.016-0.342c0.231-0.212,0.461-0.431,0.688-0.656
					c0.095-0.095,0.248-0.094,0.343,0.001c0.095,0.095,0.094,0.248-0.001,0.343c-0.232,0.231-0.467,0.454-0.704,0.67
					C250.172,236.1,250.113,236.12,250.055,236.12z M251.42,234.768c-0.06,0-0.119-0.021-0.165-0.064
					c-0.099-0.092-0.104-0.245-0.013-0.343c0.216-0.23,0.429-0.466,0.64-0.708c0.089-0.102,0.241-0.11,0.342-0.023
					c0.102,0.088,0.111,0.241,0.023,0.342c-0.215,0.246-0.432,0.485-0.649,0.72C251.55,234.742,251.484,234.768,251.42,234.768z
					 M252.688,233.321c-0.055,0-0.109-0.018-0.154-0.055c-0.104-0.086-0.118-0.238-0.033-0.342c0.201-0.243,0.399-0.491,0.597-0.745
					c0.081-0.107,0.233-0.125,0.34-0.043c0.107,0.082,0.125,0.234,0.043,0.34c-0.199,0.258-0.401,0.51-0.605,0.757
					C252.826,233.292,252.757,233.321,252.688,233.321z M253.869,231.805c-0.051,0-0.1-0.015-0.145-0.047
					c-0.107-0.08-0.13-0.232-0.051-0.34c0.189-0.254,0.375-0.513,0.561-0.774c0.078-0.11,0.23-0.136,0.338-0.059
					c0.109,0.077,0.136,0.229,0.059,0.338c-0.188,0.266-0.376,0.526-0.566,0.784C254.017,231.771,253.943,231.805,253.869,231.805z
					 M254.98,230.235c-0.047,0-0.095-0.013-0.136-0.041c-0.111-0.075-0.141-0.227-0.065-0.337c0.179-0.263,0.355-0.529,0.53-0.798
					c0.074-0.113,0.224-0.142,0.336-0.07c0.112,0.073,0.144,0.224,0.07,0.336c-0.177,0.271-0.355,0.539-0.534,0.804
					C255.135,230.198,255.058,230.235,254.98,230.235z M256.033,228.625c-0.045,0-0.089-0.012-0.129-0.037
					c-0.113-0.071-0.147-0.221-0.076-0.334c0.169-0.27,0.338-0.541,0.506-0.815c0.071-0.114,0.22-0.149,0.334-0.08
					c0.114,0.07,0.149,0.22,0.08,0.334c-0.17,0.276-0.339,0.55-0.51,0.819C256.192,228.585,256.113,228.625,256.033,228.625z
					 M257.038,226.982c-0.042,0-0.085-0.011-0.124-0.033c-0.115-0.069-0.153-0.218-0.085-0.333c0.163-0.273,0.324-0.549,0.485-0.827
					c0.066-0.116,0.215-0.156,0.331-0.089c0.116,0.066,0.156,0.215,0.089,0.331c-0.161,0.28-0.324,0.558-0.487,0.833
					C257.201,226.94,257.12,226.982,257.038,226.982z M258.003,225.317c-0.041,0-0.082-0.01-0.119-0.031
					c-0.117-0.065-0.158-0.214-0.092-0.33c0.156-0.278,0.314-0.557,0.47-0.838c0.065-0.117,0.211-0.158,0.33-0.094
					c0.117,0.065,0.159,0.213,0.094,0.33c-0.156,0.281-0.313,0.561-0.472,0.84C258.17,225.273,258.087,225.317,258.003,225.317z
					 M258.939,223.636c-0.04,0-0.079-0.009-0.116-0.029c-0.118-0.064-0.161-0.212-0.097-0.329c0.153-0.279,0.306-0.561,0.457-0.844
					c0.064-0.12,0.213-0.162,0.328-0.1c0.118,0.064,0.163,0.21,0.1,0.328c-0.151,0.284-0.306,0.566-0.459,0.848
					C259.107,223.591,259.024,223.636,258.939,223.636z M259.852,221.942c-0.039,0-0.078-0.009-0.114-0.028
					c-0.118-0.063-0.163-0.21-0.1-0.328c0.15-0.281,0.299-0.563,0.448-0.847c0.063-0.118,0.209-0.162,0.328-0.102
					c0.118,0.063,0.164,0.209,0.102,0.328c-0.149,0.284-0.3,0.567-0.45,0.849C260.022,221.896,259.938,221.942,259.852,221.942z
					 M260.748,220.244c-0.038,0-0.076-0.009-0.112-0.027c-0.119-0.061-0.165-0.208-0.103-0.327l0.445-0.853
					c0.063-0.119,0.209-0.164,0.327-0.102c0.119,0.061,0.165,0.208,0.103,0.327l-0.445,0.853
					C260.92,220.197,260.835,220.244,260.748,220.244z M261.638,218.537c-0.038,0-0.076-0.009-0.112-0.027
					c-0.118-0.062-0.165-0.208-0.102-0.327l0.445-0.855c0.061-0.119,0.209-0.164,0.327-0.103c0.118,0.062,0.165,0.208,0.103,0.327
					l-0.445,0.855C261.81,218.49,261.725,218.537,261.638,218.537z M262.527,216.828c-0.038,0-0.076-0.009-0.112-0.027
					c-0.119-0.061-0.165-0.208-0.103-0.327l0.445-0.853c0.061-0.12,0.209-0.163,0.327-0.102c0.119,0.061,0.165,0.208,0.103,0.327
					l-0.445,0.852C262.699,216.781,262.614,216.828,262.527,216.828z M263.422,215.123c-0.038,0-0.077-0.009-0.113-0.027
					c-0.118-0.063-0.164-0.209-0.102-0.328l0.451-0.851c0.063-0.121,0.209-0.164,0.327-0.101c0.119,0.063,0.164,0.209,0.1,0.327
					l-0.449,0.85C263.593,215.076,263.509,215.123,263.422,215.123z M264.325,213.426c-0.039,0-0.078-0.009-0.115-0.028
					c-0.117-0.064-0.162-0.211-0.099-0.329l0.459-0.847c0.063-0.118,0.213-0.164,0.328-0.098c0.118,0.064,0.162,0.211,0.098,0.328
					l-0.457,0.847C264.495,213.38,264.411,213.426,264.325,213.426z M265.248,211.737c-0.04,0-0.08-0.01-0.118-0.03
					c-0.117-0.065-0.159-0.213-0.094-0.33c0.156-0.281,0.314-0.563,0.472-0.84c0.067-0.118,0.217-0.157,0.33-0.092
					c0.117,0.066,0.158,0.214,0.092,0.33c-0.157,0.277-0.313,0.557-0.47,0.838C265.416,211.692,265.333,211.737,265.248,211.737z
					 M266.197,210.063c-0.041,0-0.083-0.01-0.121-0.032c-0.116-0.067-0.156-0.216-0.089-0.331c0.161-0.279,0.324-0.557,0.487-0.833
					c0.069-0.114,0.217-0.151,0.333-0.085c0.115,0.068,0.153,0.218,0.085,0.333c-0.163,0.274-0.324,0.55-0.485,0.827
					C266.362,210.02,266.28,210.063,266.197,210.063z M267.179,208.408c-0.043,0-0.087-0.011-0.126-0.035
					c-0.114-0.069-0.15-0.219-0.081-0.333c0.169-0.276,0.338-0.55,0.509-0.82c0.071-0.114,0.222-0.146,0.334-0.076
					c0.113,0.071,0.147,0.221,0.076,0.334c-0.169,0.269-0.338,0.54-0.505,0.815C267.34,208.367,267.261,208.408,267.179,208.408z
					 M268.205,206.78c-0.046,0-0.092-0.013-0.132-0.039c-0.112-0.072-0.145-0.223-0.071-0.335c0.177-0.272,0.355-0.541,0.534-0.806
					c0.075-0.111,0.228-0.141,0.337-0.065c0.111,0.075,0.141,0.227,0.066,0.337c-0.179,0.263-0.355,0.529-0.53,0.798
					C268.362,206.742,268.284,206.78,268.205,206.78z M269.283,205.188c-0.049,0-0.097-0.014-0.14-0.044
					c-0.109-0.077-0.136-0.229-0.059-0.338c0.187-0.265,0.375-0.526,0.565-0.784c0.08-0.107,0.231-0.132,0.339-0.052
					c0.108,0.08,0.131,0.232,0.052,0.339c-0.188,0.256-0.375,0.514-0.56,0.776C269.435,205.152,269.359,205.188,269.283,205.188z
					 M270.427,203.641c-0.052,0-0.104-0.017-0.148-0.051c-0.106-0.082-0.125-0.234-0.043-0.34c0.199-0.257,0.4-0.509,0.602-0.757
					c0.085-0.104,0.238-0.118,0.342-0.035c0.103,0.085,0.119,0.237,0.035,0.342c-0.199,0.244-0.398,0.494-0.596,0.747
					C270.57,203.608,270.499,203.641,270.427,203.641z M271.646,202.155c-0.057,0-0.113-0.02-0.159-0.06
					c-0.102-0.088-0.111-0.241-0.023-0.342c0.214-0.245,0.43-0.485,0.648-0.72c0.093-0.1,0.248-0.102,0.343-0.013
					c0.099,0.092,0.103,0.245,0.013,0.343c-0.215,0.23-0.429,0.467-0.639,0.708C271.78,202.128,271.713,202.155,271.646,202.155z
					 M272.957,200.751c-0.063,0-0.124-0.024-0.172-0.071c-0.095-0.095-0.094-0.248,0.001-0.343c0.23-0.229,0.465-0.454,0.701-0.671
					c0.101-0.091,0.252-0.083,0.343,0.015c0.091,0.099,0.084,0.252-0.015,0.343c-0.232,0.213-0.461,0.432-0.688,0.657
					C273.081,200.727,273.019,200.751,272.957,200.751z M274.372,199.454c-0.069,0-0.138-0.029-0.186-0.086
					c-0.086-0.104-0.073-0.256,0.029-0.342c0.25-0.21,0.504-0.411,0.76-0.606c0.105-0.08,0.258-0.062,0.34,0.047
					c0.081,0.106,0.061,0.259-0.047,0.34c-0.25,0.189-0.497,0.387-0.74,0.591C274.482,199.436,274.427,199.454,274.372,199.454z
					 M275.904,198.298c-0.078,0-0.154-0.037-0.201-0.106c-0.075-0.111-0.046-0.262,0.065-0.337c0.271-0.183,0.545-0.356,0.822-0.521
					c0.115-0.066,0.264-0.029,0.333,0.085c0.068,0.115,0.03,0.265-0.085,0.333c-0.27,0.159-0.536,0.328-0.799,0.505
					C275.998,198.285,275.951,198.298,275.904,198.298z M277.557,197.323c-0.088,0-0.174-0.048-0.216-0.132
					c-0.061-0.12-0.014-0.266,0.105-0.326c0.289-0.147,0.582-0.284,0.881-0.411c0.119-0.054,0.265,0.003,0.317,0.128
					c0.053,0.123-0.004,0.266-0.128,0.317c-0.287,0.123-0.57,0.256-0.85,0.398C277.632,197.315,277.594,197.323,277.557,197.323z
					 M279.315,196.576c-0.101,0-0.194-0.063-0.229-0.163c-0.043-0.127,0.023-0.265,0.15-0.309c0.307-0.106,0.618-0.2,0.933-0.283
					c0.134-0.038,0.264,0.043,0.297,0.172c0.034,0.13-0.043,0.263-0.172,0.297c-0.305,0.081-0.604,0.172-0.899,0.274
					C279.368,196.572,279.342,196.576,279.315,196.576z M281.167,196.087c-0.114,0-0.217-0.081-0.238-0.197
					c-0.024-0.132,0.061-0.259,0.193-0.283c0.318-0.059,0.641-0.107,0.967-0.145c0.149-0.02,0.253,0.081,0.268,0.214
					c0.015,0.133-0.081,0.253-0.214,0.269c-0.314,0.035-0.625,0.081-0.932,0.139C281.196,196.086,281.182,196.087,281.167,196.087z"
					/>
				<path style="fill:#407BFF;" d="M283.134,195.872c-0.131,0-0.238-0.104-0.242-0.234c-0.004-0.134,0.101-0.246,0.234-0.25
					c0.162-0.005,0.325-0.008,0.489-0.008c0.134,0,0.242,0.108,0.242,0.242s-0.108,0.242-0.242,0.242
					c-0.158,0-0.317,0.003-0.474,0.008C283.139,195.872,283.136,195.872,283.134,195.872z"/>
			</g>
			<g>
				<path style="fill:#407BFF;" d="M339.663,193.924c-0.134,0-0.242-0.108-0.242-0.242c0-0.134,0.108-0.242,0.242-0.242
					c0.155,0,0.309-0.007,0.461-0.02c0.135-0.025,0.25,0.087,0.262,0.221c0.012,0.133-0.087,0.251-0.221,0.262
					C339.999,193.917,339.832,193.924,339.663,193.924z"/>
				<path style="fill:#407BFF;" d="M341.099,193.744c-0.108,0-0.207-0.072-0.235-0.183c-0.032-0.13,0.046-0.262,0.176-0.295
					c0.294-0.074,0.588-0.174,0.873-0.295c0.118-0.055,0.265,0.003,0.317,0.128c0.053,0.123-0.004,0.266-0.128,0.317
					c-0.308,0.132-0.625,0.239-0.943,0.32C341.139,193.742,341.118,193.744,341.099,193.744z M342.864,192.999
					c-0.082,0-0.163-0.042-0.208-0.118c-0.069-0.115-0.031-0.264,0.084-0.332c0.261-0.156,0.521-0.333,0.776-0.526
					c0.106-0.08,0.259-0.062,0.34,0.047c0.081,0.106,0.061,0.259-0.047,0.34c-0.269,0.204-0.545,0.392-0.821,0.556
					C342.949,192.988,342.906,192.999,342.864,192.999z M344.403,191.839c-0.065,0-0.131-0.026-0.179-0.078
					c-0.091-0.099-0.084-0.252,0.015-0.343c0.228-0.209,0.451-0.433,0.674-0.668c0.093-0.097,0.246-0.102,0.343-0.011
					c0.098,0.092,0.103,0.246,0.011,0.343c-0.23,0.245-0.464,0.477-0.699,0.693C344.521,191.818,344.462,191.839,344.403,191.839z
					 M345.729,190.43c-0.055,0-0.109-0.018-0.154-0.055c-0.103-0.086-0.118-0.238-0.033-0.342c0.199-0.241,0.396-0.492,0.59-0.754
					c0.079-0.108,0.232-0.129,0.339-0.05c0.107,0.079,0.13,0.231,0.05,0.339c-0.198,0.268-0.4,0.526-0.604,0.773
					C345.869,190.4,345.799,190.43,345.729,190.43z M346.886,188.874c-0.047,0-0.095-0.013-0.136-0.041
					c-0.111-0.075-0.141-0.227-0.065-0.337c0.177-0.261,0.351-0.529,0.523-0.807c0.072-0.112,0.221-0.146,0.335-0.077
					c0.113,0.071,0.147,0.221,0.077,0.335c-0.177,0.281-0.354,0.556-0.533,0.82C347.04,188.837,346.963,188.874,346.886,188.874z
					 M347.914,187.229c-0.042,0-0.084-0.01-0.122-0.032c-0.115-0.067-0.155-0.216-0.088-0.332c0.159-0.273,0.316-0.554,0.473-0.841
					c0.064-0.116,0.211-0.162,0.329-0.097c0.117,0.063,0.161,0.211,0.097,0.329c-0.158,0.291-0.317,0.575-0.479,0.852
					C348.079,187.186,347.997,187.229,347.914,187.229z M348.844,185.525c-0.038,0-0.075-0.008-0.111-0.026
					c-0.119-0.061-0.166-0.208-0.104-0.327c0.146-0.282,0.291-0.569,0.434-0.863c0.059-0.121,0.204-0.17,0.324-0.111
					c0.12,0.059,0.17,0.203,0.111,0.324c-0.145,0.296-0.29,0.587-0.438,0.873C349.017,185.477,348.932,185.525,348.844,185.525z
					 M349.698,183.783c-0.034,0-0.069-0.007-0.103-0.023c-0.122-0.057-0.174-0.201-0.117-0.322c0.135-0.289,0.27-0.581,0.401-0.879
					c0.055-0.121,0.199-0.179,0.32-0.123c0.122,0.055,0.178,0.198,0.123,0.32c-0.134,0.3-0.269,0.596-0.405,0.887
					C349.877,183.731,349.789,183.783,349.698,183.783z M350.493,182.012c-0.032,0-0.064-0.006-0.096-0.02
					c-0.123-0.053-0.18-0.196-0.127-0.318c0.127-0.294,0.252-0.591,0.378-0.892c0.052-0.123,0.191-0.182,0.317-0.13
					c0.123,0.052,0.182,0.193,0.13,0.317c-0.126,0.303-0.253,0.602-0.38,0.896C350.676,181.957,350.587,182.012,350.493,182.012z
					 M351.238,180.221c-0.03,0-0.061-0.005-0.091-0.018c-0.124-0.05-0.185-0.191-0.134-0.315c0.119-0.297,0.238-0.598,0.357-0.899
					c0.048-0.124,0.189-0.188,0.314-0.137c0.125,0.049,0.186,0.189,0.137,0.314c-0.119,0.304-0.238,0.604-0.359,0.903
					C351.425,180.164,351.334,180.221,351.238,180.221z M351.947,178.414c-0.028,0-0.058-0.005-0.086-0.016
					c-0.126-0.048-0.188-0.188-0.141-0.313c0.114-0.3,0.228-0.602,0.341-0.906c0.046-0.126,0.19-0.188,0.311-0.144
					c0.126,0.047,0.191,0.187,0.144,0.312c-0.113,0.307-0.229,0.61-0.343,0.91C352.137,178.355,352.045,178.414,351.947,178.414z
					 M352.625,176.595c-0.027,0-0.056-0.004-0.083-0.015c-0.126-0.046-0.19-0.185-0.145-0.311l0.329-0.912
					c0.046-0.125,0.184-0.191,0.311-0.146c0.126,0.046,0.191,0.185,0.146,0.311l-0.331,0.914
					C352.817,176.534,352.724,176.595,352.625,176.595z M353.279,174.768c-0.026,0-0.054-0.004-0.08-0.014
					c-0.127-0.044-0.193-0.183-0.148-0.309l0.318-0.916c0.045-0.127,0.183-0.192,0.309-0.15c0.127,0.044,0.194,0.183,0.15,0.309
					l-0.32,0.918C353.474,174.705,353.38,174.768,353.279,174.768z M353.913,172.934c-0.025,0-0.052-0.004-0.078-0.013
					c-0.127-0.043-0.194-0.181-0.151-0.308l0.311-0.918c0.042-0.127,0.179-0.198,0.307-0.152c0.127,0.042,0.195,0.18,0.152,0.307
					l-0.31,0.92C354.108,172.87,354.014,172.934,353.913,172.934z M354.532,171.095c-0.025,0-0.051-0.004-0.076-0.012
					c-0.127-0.043-0.196-0.18-0.154-0.307l0.305-0.921c0.042-0.127,0.18-0.194,0.307-0.154c0.127,0.042,0.196,0.179,0.154,0.307
					l-0.305,0.921C354.728,171.03,354.634,171.095,354.532,171.095z M355.141,169.252c-0.025,0-0.051-0.004-0.076-0.012
					c-0.127-0.042-0.196-0.179-0.154-0.307l0.301-0.919c0.042-0.128,0.184-0.193,0.306-0.155c0.128,0.042,0.197,0.179,0.155,0.306
					l-0.301,0.921C355.338,169.188,355.242,169.252,355.141,169.252z M355.74,167.41c-0.024,0-0.05-0.003-0.075-0.012
					c-0.127-0.041-0.197-0.178-0.155-0.306l0.299-0.923c0.042-0.127,0.179-0.2,0.305-0.156c0.128,0.041,0.197,0.178,0.156,0.305
					l-0.299,0.925C355.938,167.346,355.843,167.41,355.74,167.41z M356.338,165.561c-0.024,0-0.05-0.003-0.074-0.012
					c-0.128-0.041-0.197-0.178-0.156-0.305l0.299-0.927c0.04-0.127,0.181-0.2,0.305-0.156c0.128,0.041,0.197,0.177,0.156,0.305
					l-0.299,0.927C356.535,165.496,356.44,165.561,356.338,165.561z M356.935,163.711c-0.024,0-0.05-0.003-0.075-0.012
					c-0.127-0.041-0.197-0.178-0.155-0.306l0.299-0.923c0.041-0.127,0.176-0.198,0.306-0.155c0.127,0.041,0.197,0.178,0.155,0.306
					l-0.299,0.923C357.132,163.646,357.037,163.711,356.935,163.711z M357.533,161.865c-0.025,0-0.051-0.004-0.075-0.012
					c-0.128-0.042-0.197-0.179-0.155-0.306l0.301-0.922c0.041-0.127,0.174-0.194,0.306-0.155c0.127,0.041,0.197,0.178,0.155,0.306
					l-0.301,0.922C357.73,161.801,357.636,161.865,357.533,161.865z M358.139,160.02c-0.025,0-0.051-0.004-0.076-0.012
					c-0.127-0.042-0.196-0.18-0.154-0.307l0.305-0.922c0.042-0.127,0.179-0.193,0.307-0.154c0.127,0.042,0.196,0.18,0.154,0.307
					l-0.305,0.922C358.335,159.956,358.24,160.02,358.139,160.02z M358.751,158.18c-0.025,0-0.052-0.004-0.077-0.013
					c-0.127-0.042-0.195-0.18-0.152-0.307l0.311-0.921c0.044-0.128,0.185-0.193,0.308-0.151c0.127,0.043,0.194,0.182,0.151,0.308
					l-0.311,0.919C358.946,158.116,358.853,158.18,358.751,158.18z M359.378,156.343c-0.026,0-0.053-0.004-0.079-0.013
					c-0.127-0.044-0.194-0.183-0.15-0.309l0.32-0.918c0.043-0.125,0.182-0.195,0.309-0.148c0.126,0.044,0.193,0.182,0.148,0.309
					l-0.318,0.916C359.572,156.28,359.478,156.343,359.378,156.343z M360.022,154.511c-0.027,0-0.055-0.004-0.082-0.014
					c-0.126-0.045-0.192-0.185-0.147-0.311c0.109-0.306,0.22-0.611,0.33-0.913c0.046-0.126,0.184-0.195,0.311-0.145
					c0.126,0.046,0.19,0.185,0.145,0.311c-0.11,0.302-0.219,0.605-0.328,0.911C360.215,154.449,360.121,154.511,360.022,154.511z
					 M360.685,152.689c-0.028,0-0.057-0.005-0.085-0.015c-0.125-0.047-0.189-0.186-0.143-0.313c0.113-0.305,0.228-0.608,0.343-0.909
					c0.048-0.125,0.186-0.189,0.313-0.141c0.125,0.048,0.189,0.188,0.141,0.313c-0.114,0.301-0.228,0.603-0.341,0.907
					C360.876,152.629,360.783,152.689,360.685,152.689z M361.377,150.874c-0.029,0-0.06-0.005-0.089-0.017
					c-0.124-0.049-0.186-0.189-0.137-0.314c0.119-0.305,0.238-0.605,0.359-0.903c0.05-0.125,0.193-0.188,0.315-0.134
					c0.124,0.05,0.185,0.191,0.134,0.315c-0.119,0.296-0.238,0.597-0.357,0.899C361.565,150.816,361.474,150.874,361.377,150.874z
					 M362.103,149.075c-0.031,0-0.063-0.006-0.093-0.019c-0.124-0.051-0.183-0.192-0.131-0.316c0.125-0.303,0.251-0.602,0.379-0.897
					c0.053-0.123,0.196-0.18,0.318-0.127c0.123,0.053,0.18,0.195,0.127,0.318c-0.126,0.294-0.252,0.591-0.377,0.892
					C362.289,149.02,362.198,149.075,362.103,149.075z M362.871,147.294c-0.033,0-0.067-0.007-0.099-0.02
					c-0.123-0.055-0.178-0.198-0.123-0.32c0.135-0.301,0.27-0.596,0.405-0.887c0.057-0.121,0.2-0.174,0.322-0.117
					c0.121,0.057,0.174,0.2,0.117,0.322c-0.134,0.289-0.269,0.582-0.401,0.879C363.052,147.241,362.964,147.294,362.871,147.294z
					 M363.692,145.536c-0.036,0-0.072-0.008-0.107-0.024c-0.12-0.059-0.17-0.204-0.111-0.324c0.145-0.296,0.289-0.586,0.436-0.872
					c0.062-0.119,0.209-0.166,0.327-0.104c0.119,0.062,0.166,0.208,0.104,0.327c-0.146,0.282-0.29,0.57-0.433,0.862
					C363.868,145.486,363.782,145.536,363.692,145.536z M364.581,143.811c-0.039,0-0.079-0.009-0.116-0.029
					c-0.117-0.064-0.161-0.212-0.097-0.329c0.158-0.29,0.317-0.574,0.478-0.851c0.067-0.116,0.215-0.156,0.331-0.089
					c0.116,0.067,0.156,0.216,0.089,0.331c-0.158,0.274-0.315,0.555-0.472,0.841C364.75,143.766,364.667,143.811,364.581,143.811z
					 M365.555,142.134c-0.044,0-0.088-0.012-0.128-0.036c-0.114-0.071-0.148-0.221-0.078-0.334c0.176-0.282,0.353-0.556,0.531-0.821
					c0.075-0.112,0.227-0.142,0.336-0.066c0.111,0.074,0.142,0.225,0.066,0.336c-0.175,0.262-0.35,0.531-0.521,0.808
					C365.715,142.094,365.636,142.134,365.555,142.134z M366.64,140.528c-0.05,0-0.1-0.015-0.145-0.047
					c-0.107-0.08-0.13-0.231-0.051-0.34c0.199-0.269,0.4-0.527,0.603-0.773c0.085-0.104,0.239-0.118,0.342-0.033
					c0.103,0.085,0.118,0.238,0.033,0.342c-0.198,0.24-0.394,0.491-0.587,0.754C366.787,140.495,366.714,140.528,366.64,140.528z
					 M367.871,139.036c-0.06,0-0.119-0.021-0.166-0.065c-0.098-0.091-0.103-0.244-0.011-0.343c0.229-0.245,0.461-0.477,0.697-0.694
					c0.1-0.091,0.253-0.083,0.343,0.015c0.091,0.099,0.084,0.252-0.015,0.343c-0.227,0.209-0.45,0.432-0.672,0.669
					C368,139.011,367.935,139.036,367.871,139.036z M369.293,137.73c-0.073,0-0.145-0.032-0.192-0.095
					c-0.082-0.106-0.061-0.259,0.045-0.34c0.267-0.204,0.541-0.392,0.816-0.558c0.113-0.067,0.263-0.033,0.333,0.083
					c0.069,0.114,0.032,0.264-0.083,0.333c-0.26,0.156-0.52,0.334-0.772,0.526C369.397,137.715,369.345,137.73,369.293,137.73z
					 M370.94,136.748c-0.094,0-0.184-0.055-0.223-0.146c-0.053-0.123,0.004-0.266,0.127-0.318c0.311-0.134,0.628-0.244,0.945-0.327
					c0.126-0.037,0.262,0.042,0.296,0.173c0.034,0.13-0.043,0.262-0.173,0.296c-0.293,0.077-0.588,0.18-0.877,0.304
					C371.005,136.742,370.973,136.748,370.94,136.748z"/>
				<path style="fill:#407BFF;" d="M372.839,136.266c-0.125,0-0.232-0.096-0.242-0.223c-0.01-0.134,0.09-0.251,0.223-0.262
					c0.166-0.013,0.332-0.02,0.501-0.02c0.134,0,0.242,0.108,0.242,0.242c0,0.134-0.108,0.242-0.242,0.242
					c-0.155,0-0.31,0.007-0.462,0.02C372.852,136.266,372.845,136.266,372.839,136.266z"/>
			</g>
			<g>
				<path style="fill:#407BFF;" d="M340.024,195.892c-0.009,0-0.019,0-0.028-0.001c-0.148-0.018-0.3-0.026-0.453-0.026
					c-0.134,0-0.242-0.108-0.242-0.242s0.108-0.242,0.242-0.242c0.173,0,0.342,0.009,0.51,0.028c0.133,0.016,0.228,0.137,0.213,0.27
					C340.251,195.801,340.147,195.892,340.024,195.892z"/>
				<path style="fill:#407BFF;" d="M363.285,274.761c-0.028,0-0.057-0.005-0.085-0.015c-0.302-0.113-0.603-0.265-0.896-0.45
					c-0.113-0.072-0.146-0.222-0.075-0.335c0.073-0.114,0.223-0.146,0.335-0.075c0.265,0.168,0.535,0.305,0.806,0.405
					c0.126,0.048,0.19,0.188,0.143,0.313C363.476,274.701,363.384,274.761,363.285,274.761z M361.682,273.759
					c-0.058,0-0.115-0.02-0.162-0.061c-0.232-0.209-0.463-0.444-0.686-0.701c-0.088-0.101-0.078-0.254,0.023-0.342
					c0.1-0.087,0.254-0.077,0.342,0.023c0.211,0.241,0.428,0.463,0.645,0.658c0.1,0.09,0.108,0.243,0.019,0.343
					C361.815,273.732,361.748,273.759,361.682,273.759z M360.426,272.326c-0.075,0-0.149-0.035-0.197-0.101
					c-0.183-0.256-0.361-0.529-0.536-0.817c-0.069-0.114-0.033-0.264,0.081-0.333c0.113-0.071,0.265-0.033,0.333,0.081
					c0.169,0.278,0.34,0.54,0.517,0.786c0.078,0.109,0.053,0.261-0.056,0.339C360.524,272.311,360.475,272.326,360.426,272.326z
					 M359.427,270.688c-0.087,0-0.171-0.047-0.214-0.129c-0.148-0.279-0.293-0.57-0.435-0.873c-0.057-0.121-0.004-0.266,0.117-0.322
					c0.12-0.058,0.266-0.004,0.322,0.117c0.138,0.295,0.278,0.578,0.423,0.852c0.064,0.118,0.019,0.265-0.101,0.327
					C359.504,270.679,359.465,270.688,359.427,270.688z M358.607,268.945c-0.095,0-0.184-0.056-0.224-0.147
					c-0.123-0.292-0.244-0.592-0.363-0.901c-0.048-0.125,0.015-0.265,0.14-0.314c0.122-0.048,0.266,0.014,0.313,0.14
					c0.117,0.304,0.236,0.6,0.357,0.886c0.052,0.124-0.006,0.266-0.129,0.318C358.671,268.94,358.639,268.945,358.607,268.945z
					 M357.914,267.147c-0.101,0-0.193-0.063-0.229-0.162c-0.105-0.299-0.21-0.605-0.311-0.918c-0.042-0.127,0.027-0.264,0.155-0.306
					c0.123-0.041,0.264,0.027,0.306,0.155c0.1,0.309,0.204,0.611,0.308,0.908c0.045,0.126-0.022,0.265-0.148,0.309
					C357.968,267.144,357.94,267.147,357.914,267.147z M357.315,265.317c-0.104,0-0.2-0.067-0.232-0.172
					c-0.092-0.305-0.184-0.615-0.273-0.93c-0.036-0.129,0.038-0.264,0.167-0.3c0.133-0.034,0.263,0.038,0.3,0.167
					c0.089,0.313,0.179,0.619,0.271,0.922c0.038,0.128-0.034,0.264-0.162,0.303C357.362,265.315,357.339,265.317,357.315,265.317z
					 M356.786,263.461c-0.107,0-0.206-0.071-0.234-0.181c-0.081-0.307-0.163-0.618-0.243-0.935c-0.032-0.13,0.046-0.262,0.176-0.295
					c0.13-0.032,0.262,0.046,0.295,0.176c0.08,0.314,0.16,0.624,0.241,0.931c0.034,0.129-0.043,0.262-0.173,0.296
					C356.827,263.459,356.807,263.461,356.786,263.461z M356.315,261.594c-0.11,0-0.209-0.074-0.236-0.186
					c-0.074-0.311-0.147-0.625-0.22-0.942c-0.03-0.13,0.052-0.261,0.183-0.29c0.125-0.029,0.261,0.052,0.29,0.183
					c0.072,0.315,0.146,0.627,0.22,0.936c0.03,0.131-0.05,0.262-0.18,0.293C356.352,261.592,356.333,261.594,356.315,261.594z
					 M355.884,259.713c-0.112,0-0.213-0.077-0.237-0.191l-0.2-0.943c-0.027-0.131,0.057-0.26,0.188-0.287
					c0.127-0.033,0.261,0.057,0.287,0.188l0.2,0.941c0.028,0.131-0.056,0.26-0.186,0.288
					C355.917,259.712,355.9,259.713,355.884,259.713z M355.491,257.826c-0.113,0-0.215-0.079-0.238-0.194
					c-0.063-0.313-0.124-0.629-0.185-0.948c-0.025-0.132,0.06-0.259,0.192-0.284c0.137-0.022,0.259,0.061,0.284,0.192
					c0.062,0.317,0.123,0.633,0.186,0.944c0.025,0.132-0.06,0.26-0.19,0.286C355.522,257.825,355.507,257.826,355.491,257.826z
					 M355.127,255.933c-0.115,0-0.217-0.081-0.238-0.197c-0.059-0.314-0.116-0.632-0.174-0.95c-0.023-0.133,0.064-0.258,0.196-0.282
					c0.141-0.018,0.259,0.066,0.282,0.196c0.056,0.318,0.113,0.634,0.172,0.946c0.024,0.132-0.063,0.259-0.193,0.283
					C355.156,255.932,355.142,255.933,355.127,255.933z M354.787,254.035c-0.116,0-0.219-0.083-0.239-0.201l-0.161-0.951
					c-0.022-0.132,0.066-0.257,0.199-0.279c0.137-0.014,0.257,0.067,0.279,0.199l0.161,0.949c0.022,0.133-0.066,0.258-0.198,0.28
					C354.815,254.034,354.801,254.035,354.787,254.035z M354.468,252.135c-0.117,0-0.221-0.084-0.239-0.204l-0.152-0.952
					c-0.022-0.132,0.069-0.257,0.201-0.277c0.125-0.023,0.257,0.068,0.277,0.201l0.152,0.952c0.021,0.132-0.068,0.256-0.201,0.277
					C354.493,252.134,354.48,252.135,354.468,252.135z M354.166,250.23c-0.118,0-0.222-0.085-0.239-0.205l-0.146-0.954
					c-0.02-0.133,0.072-0.256,0.204-0.276c0.14-0.015,0.256,0.072,0.276,0.204l0.145,0.952c0.021,0.133-0.07,0.257-0.202,0.276
					C354.19,250.23,354.178,250.23,354.166,250.23z M353.878,248.323c-0.118,0-0.222-0.086-0.24-0.206l-0.14-0.955
					c-0.018-0.132,0.073-0.255,0.206-0.274c0.139-0.03,0.256,0.074,0.274,0.206l0.14,0.951c0.02,0.133-0.072,0.257-0.204,0.276
					C353.901,248.323,353.89,248.323,353.878,248.323z M353.603,246.416c-0.119,0-0.223-0.087-0.24-0.208l-0.135-0.954
					c-0.018-0.133,0.074-0.256,0.206-0.274c0.138-0.023,0.255,0.074,0.274,0.206l0.135,0.954c0.018,0.133-0.073,0.256-0.206,0.274
					C353.625,246.416,353.613,246.416,353.603,246.416z M353.335,244.507c-0.119,0-0.224-0.088-0.24-0.209l-0.131-0.956
					c-0.018-0.133,0.075-0.255,0.208-0.272c0.129-0.026,0.254,0.074,0.272,0.208l0.131,0.954c0.018,0.133-0.074,0.255-0.207,0.273
					C353.357,244.507,353.346,244.507,353.335,244.507z M353.076,242.596c-0.12,0-0.224-0.088-0.24-0.21l-0.127-0.956
					c-0.018-0.133,0.076-0.254,0.209-0.271c0.146-0.026,0.254,0.077,0.272,0.209l0.127,0.954c0.019,0.133-0.075,0.255-0.208,0.272
					C353.098,242.596,353.087,242.596,353.076,242.596z M352.823,240.686c-0.12,0-0.225-0.089-0.24-0.211l-0.125-0.956
					c-0.018-0.133,0.076-0.254,0.209-0.271c0.149-0.025,0.255,0.077,0.272,0.209l0.125,0.956c0.018,0.133-0.076,0.255-0.209,0.271
					C352.844,240.686,352.833,240.686,352.823,240.686z M352.573,238.774c-0.12,0-0.225-0.089-0.24-0.211l-0.123-0.956
					c-0.018-0.133,0.076-0.255,0.209-0.271c0.138-0.022,0.255,0.077,0.271,0.209l0.123,0.956c0.018,0.133-0.076,0.255-0.209,0.271
					C352.594,238.774,352.583,238.774,352.573,238.774z M352.327,236.862c-0.12,0-0.225-0.089-0.24-0.211l-0.123-0.956
					c-0.018-0.133,0.076-0.255,0.209-0.271c0.149-0.02,0.255,0.076,0.271,0.209l0.123,0.956c0.018,0.133-0.076,0.255-0.209,0.271
					C352.348,236.862,352.337,236.862,352.327,236.862z M352.081,234.95c-0.12,0-0.225-0.089-0.24-0.211l-0.123-0.959
					c-0.018-0.133,0.076-0.255,0.209-0.271c0.149-0.027,0.255,0.077,0.271,0.209l0.123,0.959c0.018,0.134-0.076,0.255-0.209,0.271
					C352.102,234.95,352.091,234.95,352.081,234.95z M351.835,233.033c-0.12,0-0.225-0.089-0.24-0.211l-0.124-0.956
					c-0.018-0.133,0.076-0.255,0.209-0.271c0.149-0.022,0.255,0.077,0.272,0.209l0.124,0.956c0.018,0.133-0.076,0.254-0.209,0.271
					C351.855,233.033,351.845,233.033,351.835,233.033z M351.588,231.123c-0.12,0-0.225-0.089-0.24-0.211l-0.125-0.951
					c-0.018-0.133,0.075-0.255,0.208-0.272c0.133-0.028,0.255,0.075,0.272,0.208l0.125,0.953c0.018,0.133-0.076,0.255-0.209,0.271
					C351.608,231.123,351.598,231.123,351.588,231.123z M351.338,229.215c-0.12,0-0.224-0.088-0.24-0.21l-0.128-0.955
					c-0.018-0.133,0.075-0.255,0.208-0.273c0.124-0.02,0.255,0.075,0.272,0.208l0.128,0.955c0.018,0.133-0.075,0.255-0.208,0.273
					C351.359,229.215,351.349,229.215,351.338,229.215z M351.08,227.305c-0.12,0-0.225-0.089-0.24-0.211
					c-0.042-0.318-0.086-0.636-0.13-0.953c-0.019-0.133,0.074-0.255,0.207-0.273c0.128-0.027,0.256,0.075,0.273,0.207
					c0.044,0.317,0.088,0.637,0.13,0.957c0.018,0.133-0.076,0.254-0.209,0.271C351.101,227.305,351.09,227.305,351.08,227.305z
					 M350.818,225.395c-0.119,0-0.223-0.087-0.24-0.208l-0.135-0.954c-0.019-0.133,0.073-0.256,0.206-0.274
					c0.136-0.031,0.255,0.074,0.274,0.206l0.135,0.954c0.018,0.133-0.073,0.256-0.206,0.274
					C350.841,225.395,350.829,225.395,350.818,225.395z M350.547,223.485c-0.119,0-0.223-0.087-0.24-0.208l-0.14-0.953
					c-0.02-0.132,0.072-0.256,0.205-0.275c0.126-0.024,0.255,0.072,0.275,0.205l0.14,0.955c0.019,0.132-0.073,0.255-0.206,0.274
					C350.569,223.485,350.558,223.485,350.547,223.485z M350.265,221.578c-0.118,0-0.222-0.086-0.24-0.206l-0.145-0.952
					c-0.021-0.133,0.07-0.257,0.202-0.276c0.146-0.023,0.257,0.07,0.276,0.202l0.147,0.954c0.02,0.133-0.072,0.256-0.204,0.276
					C350.288,221.577,350.276,221.578,350.265,221.578z M349.97,219.674c-0.117,0-0.221-0.085-0.239-0.204l-0.153-0.95
					c-0.021-0.132,0.067-0.257,0.2-0.278c0.129-0.024,0.257,0.068,0.278,0.2l0.153,0.952c0.021,0.132-0.068,0.257-0.201,0.277
					C349.995,219.673,349.982,219.674,349.97,219.674z M349.659,217.77c-0.116,0-0.22-0.083-0.239-0.202l-0.162-0.948
					c-0.022-0.133,0.065-0.258,0.197-0.281c0.139-0.021,0.259,0.066,0.281,0.197l0.162,0.952c0.022,0.132-0.067,0.257-0.199,0.279
					C349.685,217.77,349.672,217.77,349.659,217.77z M349.329,215.872c-0.115,0-0.218-0.082-0.239-0.199
					c-0.056-0.318-0.113-0.634-0.172-0.946c-0.024-0.132,0.063-0.259,0.193-0.283c0.134-0.023,0.259,0.063,0.283,0.193
					c0.059,0.314,0.116,0.632,0.174,0.95c0.023,0.133-0.064,0.259-0.196,0.282C349.357,215.871,349.343,215.872,349.329,215.872z
					 M348.978,213.977c-0.114,0-0.216-0.08-0.238-0.196c-0.061-0.317-0.123-0.633-0.186-0.944c-0.025-0.132,0.06-0.26,0.19-0.286
					c0.138-0.021,0.26,0.06,0.286,0.19c0.063,0.313,0.124,0.629,0.186,0.948c0.025,0.132-0.061,0.259-0.192,0.284
					C349.009,213.976,348.993,213.977,348.978,213.977z M348.599,212.085c-0.113,0-0.214-0.078-0.237-0.193
					c-0.065-0.316-0.133-0.63-0.2-0.94c-0.028-0.132,0.055-0.261,0.186-0.289c0.135-0.031,0.262,0.055,0.289,0.186
					c0.067,0.313,0.135,0.628,0.2,0.946c0.027,0.131-0.058,0.26-0.188,0.286C348.631,212.084,348.614,212.085,348.599,212.085z
					 M348.189,210.201c-0.111,0-0.211-0.076-0.236-0.189c-0.072-0.316-0.145-0.628-0.219-0.936c-0.032-0.13,0.049-0.261,0.179-0.292
					c0.132-0.032,0.261,0.049,0.292,0.179c0.075,0.31,0.148,0.623,0.221,0.941c0.03,0.131-0.052,0.261-0.183,0.29
					C348.225,210.199,348.206,210.201,348.189,210.201z M347.737,208.327c-0.108,0-0.207-0.072-0.235-0.183
					c-0.079-0.314-0.16-0.624-0.242-0.93c-0.034-0.129,0.042-0.262,0.172-0.297c0.126-0.038,0.262,0.043,0.297,0.172
					c0.082,0.308,0.163,0.619,0.244,0.936c0.032,0.13-0.046,0.262-0.176,0.295C347.777,208.325,347.757,208.327,347.737,208.327z
					 M347.237,206.466c-0.105,0-0.203-0.069-0.233-0.176c-0.089-0.311-0.18-0.619-0.272-0.92c-0.04-0.128,0.032-0.264,0.16-0.303
					c0.125-0.044,0.265,0.032,0.303,0.16c0.094,0.305,0.185,0.614,0.275,0.93c0.037,0.128-0.038,0.263-0.167,0.3
					C347.282,206.463,347.26,206.466,347.237,206.466z M346.673,204.621c-0.103,0-0.197-0.064-0.23-0.167
					c-0.101-0.309-0.204-0.611-0.309-0.907c-0.045-0.126,0.022-0.265,0.147-0.31c0.126-0.047,0.265,0.02,0.31,0.147
					c0.107,0.3,0.21,0.606,0.313,0.919c0.042,0.127-0.027,0.264-0.155,0.306C346.724,204.617,346.698,204.621,346.673,204.621z
					 M346.027,202.804c-0.098,0-0.189-0.059-0.227-0.155c-0.117-0.304-0.236-0.6-0.357-0.886c-0.052-0.124,0.006-0.266,0.129-0.318
					c0.126-0.052,0.267,0.007,0.318,0.129c0.123,0.292,0.244,0.592,0.363,0.901c0.048,0.125-0.015,0.265-0.14,0.314
					C346.086,202.799,346.057,202.804,346.027,202.804z M345.275,201.031c-0.091,0-0.179-0.051-0.22-0.14
					c-0.139-0.296-0.28-0.579-0.425-0.851c-0.063-0.118-0.019-0.266,0.1-0.328c0.119-0.064,0.266-0.02,0.328,0.1
					c0.148,0.279,0.294,0.57,0.436,0.874c0.057,0.121,0.005,0.266-0.117,0.322C345.345,201.024,345.31,201.031,345.275,201.031z
					 M344.368,199.331c-0.082,0-0.162-0.041-0.207-0.116c-0.169-0.278-0.342-0.54-0.52-0.787c-0.078-0.109-0.053-0.261,0.056-0.339
					c0.109-0.076,0.26-0.052,0.339,0.056c0.184,0.257,0.364,0.53,0.539,0.818c0.069,0.114,0.033,0.264-0.081,0.333
					C344.455,199.32,344.411,199.331,344.368,199.331z M343.243,197.776c-0.067,0-0.134-0.027-0.182-0.082
					c-0.215-0.243-0.434-0.464-0.653-0.657c-0.101-0.088-0.11-0.241-0.022-0.342c0.089-0.101,0.241-0.111,0.342-0.021
					c0.234,0.206,0.469,0.441,0.696,0.7c0.089,0.101,0.079,0.253-0.022,0.342C343.357,197.757,343.3,197.776,343.243,197.776z
					 M341.805,196.526c-0.044,0-0.088-0.012-0.128-0.036c-0.26-0.161-0.529-0.293-0.803-0.392c-0.126-0.046-0.19-0.186-0.146-0.312
					c0.047-0.126,0.185-0.19,0.312-0.145c0.304,0.111,0.604,0.258,0.893,0.436c0.114,0.07,0.148,0.221,0.078,0.334
					C341.965,196.486,341.886,196.526,341.805,196.526z"/>
				<path style="fill:#407BFF;" d="M364.747,275.028c-0.171,0-0.342-0.01-0.508-0.028c-0.133-0.015-0.229-0.135-0.214-0.269
					c0.015-0.133,0.118-0.22,0.269-0.214c0.148,0.017,0.3,0.026,0.453,0.026c0.134,0,0.242,0.108,0.242,0.242
					S364.881,275.028,364.747,275.028z"/>
			</g>
			<g>
				<path style="fill:#407BFF;" d="M248.996,104.646c-0.005,0-0.011,0-0.017,0c-0.153-0.011-0.31-0.017-0.466-0.017
					c-0.134,0-0.242-0.108-0.242-0.242c0-0.134,0.108-0.242,0.242-0.242c0.168,0,0.334,0.006,0.499,0.017
					c0.134,0.009,0.234,0.125,0.226,0.259C249.23,104.548,249.123,104.646,248.996,104.646z"/>
				<path style="fill:#407BFF;" d="M282.226,193.753c-0.018,0-0.036-0.002-0.055-0.006c-0.321-0.074-0.643-0.174-0.954-0.297
					c-0.125-0.049-0.186-0.189-0.137-0.314c0.049-0.124,0.188-0.186,0.314-0.137c0.289,0.114,0.587,0.207,0.886,0.275
					c0.13,0.03,0.212,0.16,0.182,0.291C282.436,193.678,282.336,193.753,282.226,193.753z M280.44,193.056
					c-0.04,0-0.081-0.01-0.118-0.03c-0.281-0.157-0.561-0.336-0.832-0.532c-0.108-0.079-0.133-0.23-0.054-0.339
					c0.079-0.108,0.232-0.132,0.339-0.054c0.255,0.185,0.519,0.354,0.783,0.501c0.117,0.065,0.159,0.213,0.094,0.33
					C280.607,193.011,280.524,193.056,280.44,193.056z M278.883,191.935c-0.058,0-0.115-0.02-0.161-0.062
					c-0.234-0.208-0.471-0.438-0.704-0.687c-0.092-0.097-0.087-0.251,0.011-0.343c0.097-0.092,0.25-0.087,0.343,0.011
					c0.224,0.236,0.45,0.458,0.673,0.657c0.101,0.089,0.109,0.242,0.02,0.342C279.016,191.907,278.949,191.935,278.883,191.935z
					 M277.56,190.535c-0.07,0-0.141-0.03-0.188-0.089c-0.201-0.248-0.399-0.509-0.594-0.781c-0.078-0.108-0.053-0.26,0.057-0.338
					c0.107-0.077,0.261-0.053,0.338,0.056c0.188,0.264,0.381,0.517,0.576,0.757c0.084,0.104,0.068,0.257-0.035,0.342
					C277.669,190.518,277.614,190.535,277.56,190.535z M276.433,188.965c-0.08,0-0.158-0.039-0.204-0.111
					c-0.173-0.27-0.343-0.548-0.51-0.837c-0.067-0.115-0.027-0.264,0.089-0.331c0.116-0.068,0.265-0.027,0.331,0.089
					c0.163,0.281,0.329,0.554,0.498,0.817c0.072,0.112,0.04,0.263-0.073,0.335C276.523,188.953,276.478,188.965,276.433,188.965z
					 M275.459,187.292c-0.087,0-0.17-0.046-0.214-0.128c-0.151-0.283-0.299-0.573-0.444-0.872c-0.059-0.12-0.009-0.266,0.111-0.324
					c0.119-0.057,0.266-0.009,0.324,0.111c0.144,0.293,0.289,0.579,0.437,0.856c0.063,0.118,0.018,0.266-0.1,0.328
					C275.537,187.283,275.498,187.292,275.459,187.292z M274.605,185.55c-0.093,0-0.181-0.053-0.222-0.143
					c-0.131-0.293-0.262-0.59-0.391-0.893c-0.052-0.123,0.006-0.266,0.129-0.318c0.126-0.052,0.267,0.006,0.318,0.129
					c0.127,0.3,0.256,0.595,0.387,0.884c0.055,0.122,0,0.266-0.122,0.321C274.673,185.543,274.639,185.55,274.605,185.55z
					 M273.848,183.765c-0.097,0-0.188-0.058-0.226-0.153c-0.118-0.299-0.234-0.602-0.35-0.91c-0.048-0.125,0.016-0.265,0.142-0.312
					c0.121-0.048,0.265,0.015,0.311,0.142c0.115,0.305,0.231,0.605,0.348,0.902c0.049,0.125-0.012,0.266-0.137,0.314
					C273.907,183.76,273.877,183.765,273.848,183.765z M273.167,181.946c-0.1,0-0.193-0.062-0.228-0.161
					c-0.107-0.303-0.214-0.609-0.318-0.922c-0.043-0.127,0.025-0.265,0.152-0.307c0.126-0.046,0.264,0.025,0.307,0.152
					c0.104,0.309,0.209,0.613,0.316,0.914c0.045,0.126-0.021,0.265-0.148,0.31C273.222,181.942,273.194,181.946,273.167,181.946z
					 M272.547,180.107c-0.103,0-0.198-0.065-0.232-0.168c-0.098-0.307-0.194-0.616-0.29-0.93c-0.04-0.128,0.032-0.264,0.16-0.303
					c0.125-0.042,0.265,0.032,0.303,0.16c0.096,0.311,0.192,0.619,0.29,0.924c0.04,0.128-0.03,0.265-0.157,0.306
					C272.596,180.105,272.571,180.107,272.547,180.107z M271.978,178.25c-0.104,0-0.201-0.068-0.232-0.174
					c-0.091-0.309-0.181-0.62-0.27-0.935c-0.036-0.129,0.038-0.264,0.167-0.3c0.132-0.035,0.264,0.039,0.3,0.167
					c0.089,0.314,0.177,0.624,0.268,0.931c0.038,0.128-0.035,0.263-0.164,0.301C272.024,178.247,272.001,178.25,271.978,178.25z
					 M271.451,176.383c-0.108,0-0.205-0.07-0.234-0.179c-0.084-0.312-0.167-0.625-0.249-0.94c-0.034-0.13,0.044-0.263,0.173-0.296
					c0.132-0.036,0.263,0.044,0.296,0.173c0.082,0.316,0.165,0.627,0.249,0.937c0.035,0.13-0.042,0.263-0.171,0.298
					C271.493,176.381,271.472,176.383,271.451,176.383z M270.96,174.504c-0.108,0-0.208-0.073-0.235-0.184
					c-0.078-0.311-0.156-0.627-0.233-0.943c-0.032-0.13,0.048-0.262,0.178-0.293c0.133-0.033,0.262,0.049,0.293,0.178
					c0.077,0.316,0.155,0.63,0.233,0.941c0.032,0.13-0.047,0.262-0.177,0.294C270.999,174.502,270.979,174.504,270.96,174.504z
					 M270.502,172.618c-0.11,0-0.21-0.074-0.236-0.187c-0.074-0.313-0.147-0.629-0.221-0.946c-0.03-0.131,0.051-0.261,0.182-0.291
					c0.131-0.032,0.26,0.052,0.291,0.182c0.073,0.317,0.146,0.632,0.221,0.944c0.03,0.13-0.05,0.261-0.181,0.292
					C270.539,172.616,270.521,172.618,270.502,172.618z M270.066,170.726c-0.111,0-0.212-0.076-0.236-0.189l-0.21-0.949
					c-0.028-0.131,0.055-0.26,0.186-0.289c0.138-0.033,0.26,0.056,0.289,0.186l0.208,0.947c0.029,0.131-0.053,0.26-0.184,0.289
					C270.102,170.724,270.084,170.726,270.066,170.726z M269.654,168.828c-0.112,0-0.213-0.078-0.237-0.192l-0.198-0.951
					c-0.027-0.131,0.058-0.26,0.189-0.286c0.134-0.035,0.26,0.057,0.286,0.188l0.198,0.949c0.027,0.131-0.057,0.26-0.188,0.287
					C269.688,168.827,269.671,168.828,269.654,168.828z M269.261,166.927c-0.113,0-0.215-0.079-0.238-0.194l-0.19-0.952
					c-0.025-0.132,0.06-0.26,0.19-0.286c0.141-0.023,0.26,0.059,0.286,0.191l0.19,0.952c0.025,0.132-0.059,0.26-0.19,0.286
					C269.292,166.926,269.276,166.927,269.261,166.927z M268.884,165.023c-0.114,0-0.216-0.08-0.238-0.196l-0.184-0.955
					c-0.025-0.131,0.061-0.258,0.193-0.283c0.134-0.024,0.259,0.063,0.283,0.193l0.184,0.953c0.025,0.131-0.061,0.259-0.192,0.284
					C268.914,165.023,268.898,165.023,268.884,165.023z M268.521,163.115c-0.114,0-0.217-0.081-0.238-0.197l-0.178-0.955
					c-0.024-0.132,0.063-0.259,0.194-0.282c0.133-0.028,0.258,0.062,0.282,0.194l0.178,0.953c0.024,0.132-0.061,0.259-0.193,0.283
					C268.55,163.114,268.535,163.115,268.521,163.115z M268.169,161.208c-0.115,0-0.218-0.082-0.238-0.199l-0.173-0.956
					c-0.024-0.132,0.063-0.258,0.195-0.281c0.142-0.023,0.259,0.064,0.281,0.195l0.173,0.956c0.024,0.132-0.064,0.258-0.195,0.281
					C268.197,161.207,268.183,161.208,268.169,161.208z M267.827,159.296c-0.115,0-0.218-0.082-0.238-0.199
					c-0.058-0.318-0.114-0.638-0.17-0.957c-0.022-0.132,0.065-0.258,0.197-0.281c0.142-0.017,0.259,0.066,0.281,0.197
					c0.056,0.319,0.11,0.637,0.168,0.955c0.024,0.132-0.063,0.258-0.195,0.281C267.855,159.295,267.841,159.296,267.827,159.296z
					 M267.491,157.385c-0.116,0-0.219-0.083-0.239-0.201l-0.164-0.956c-0.022-0.132,0.066-0.258,0.198-0.28
					c0.129-0.017,0.258,0.066,0.28,0.198l0.164,0.956c0.022,0.132-0.066,0.257-0.198,0.28
					C267.519,157.384,267.505,157.385,267.491,157.385z M267.162,155.471c-0.116,0-0.219-0.083-0.239-0.201l-0.162-0.958
					c-0.022-0.132,0.067-0.257,0.199-0.279c0.137-0.016,0.259,0.067,0.279,0.199l0.162,0.956c0.022,0.132-0.066,0.258-0.198,0.28
					C267.19,155.47,267.176,155.471,267.162,155.471z M266.838,153.557c-0.117,0-0.22-0.084-0.239-0.202l-0.16-0.957
					c-0.023-0.132,0.067-0.257,0.199-0.279c0.142-0.016,0.258,0.067,0.279,0.199l0.16,0.957c0.022,0.133-0.067,0.258-0.199,0.279
					C266.864,153.556,266.851,153.557,266.838,153.557z M266.519,151.643c-0.116,0-0.22-0.083-0.239-0.202l-0.159-0.959
					c-0.021-0.132,0.067-0.257,0.2-0.278c0.131-0.024,0.256,0.067,0.278,0.2l0.159,0.957c0.022,0.132-0.067,0.257-0.199,0.279
					C266.545,151.642,266.531,151.643,266.519,151.643z M266.199,149.727c-0.116,0-0.219-0.083-0.239-0.202l-0.159-0.958
					c-0.022-0.132,0.067-0.257,0.2-0.278c0.131-0.019,0.256,0.068,0.278,0.2l0.159,0.956c0.022,0.132-0.066,0.257-0.199,0.279
					C266.226,149.727,266.212,149.727,266.199,149.727z M265.88,147.81c-0.117,0-0.22-0.084-0.239-0.203l-0.16-0.959
					c-0.022-0.132,0.067-0.257,0.199-0.279c0.138-0.017,0.258,0.067,0.279,0.199l0.16,0.961c0.021,0.132-0.067,0.257-0.2,0.278
					C265.906,147.809,265.893,147.81,265.88,147.81z M265.561,145.892c-0.116,0-0.22-0.083-0.239-0.202l-0.161-0.957
					c-0.022-0.132,0.066-0.257,0.199-0.279c0.14-0.016,0.257,0.067,0.279,0.199l0.161,0.957c0.022,0.132-0.067,0.257-0.199,0.279
					C265.588,145.891,265.574,145.892,265.561,145.892z M265.238,143.979c-0.116,0-0.219-0.083-0.239-0.201l-0.162-0.954
					c-0.022-0.132,0.066-0.257,0.199-0.279c0.137-0.02,0.257,0.067,0.279,0.199l0.162,0.952c0.022,0.132-0.066,0.257-0.198,0.28
					C265.266,143.977,265.252,143.979,265.238,143.979z M264.911,142.069c-0.116,0-0.219-0.083-0.239-0.201l-0.164-0.957
					c-0.022-0.132,0.066-0.258,0.198-0.28c0.13-0.017,0.258,0.066,0.28,0.198l0.164,0.957c0.023,0.132-0.066,0.258-0.198,0.28
					C264.939,142.068,264.925,142.069,264.911,142.069z M264.581,140.156c-0.116,0-0.219-0.083-0.239-0.2l-0.168-0.955
					c-0.023-0.133,0.065-0.258,0.196-0.282c0.144-0.019,0.259,0.065,0.282,0.196l0.168,0.957c0.022,0.132-0.065,0.258-0.197,0.281
					C264.608,140.155,264.595,140.156,264.581,140.156z M264.242,138.246c-0.116,0-0.218-0.082-0.239-0.2l-0.171-0.955
					c-0.024-0.132,0.064-0.258,0.195-0.281c0.136-0.025,0.258,0.064,0.281,0.195l0.173,0.957c0.022,0.132-0.065,0.258-0.197,0.281
					C264.271,138.245,264.256,138.246,264.242,138.246z M263.897,136.335c-0.115,0-0.217-0.081-0.238-0.198l-0.178-0.953
					c-0.024-0.132,0.061-0.259,0.193-0.283c0.14-0.021,0.259,0.063,0.283,0.193l0.178,0.955c0.024,0.132-0.063,0.258-0.194,0.282
					C263.926,136.334,263.911,136.335,263.897,136.335z M263.537,134.427c-0.114,0-0.216-0.081-0.238-0.197l-0.184-0.952
					c-0.025-0.131,0.061-0.259,0.192-0.284c0.136-0.022,0.259,0.062,0.284,0.192l0.184,0.954c0.025,0.132-0.061,0.258-0.193,0.283
					C263.567,134.426,263.552,134.427,263.537,134.427z M263.168,132.52c-0.113,0-0.215-0.079-0.238-0.194l-0.19-0.95
					c-0.027-0.132,0.058-0.26,0.188-0.286c0.136-0.029,0.259,0.059,0.286,0.189l0.192,0.952c0.025,0.132-0.059,0.26-0.19,0.286
					C263.199,132.52,263.184,132.52,263.168,132.52z M262.782,130.618c-0.112,0-0.214-0.078-0.237-0.192l-0.199-0.95
					c-0.027-0.131,0.057-0.26,0.188-0.287c0.127-0.026,0.259,0.057,0.287,0.188l0.199,0.95c0.027,0.132-0.057,0.26-0.188,0.287
					C262.815,130.617,262.799,130.618,262.782,130.618z M262.378,128.719c-0.111,0-0.212-0.077-0.237-0.19l-0.208-0.947
					c-0.029-0.131,0.053-0.26,0.184-0.289c0.127-0.033,0.26,0.053,0.289,0.184l0.21,0.949c0.028,0.131-0.055,0.26-0.186,0.289
					C262.412,128.718,262.395,128.719,262.378,128.719z M261.956,126.824c-0.11,0-0.21-0.075-0.236-0.188l-0.221-0.945
					c-0.03-0.13,0.05-0.261,0.181-0.292c0.131-0.029,0.261,0.051,0.292,0.181l0.221,0.947c0.03,0.131-0.052,0.261-0.182,0.291
					C261.992,126.822,261.974,126.824,261.956,126.824z M261.508,124.936c-0.109,0-0.209-0.074-0.235-0.185
					c-0.077-0.315-0.155-0.63-0.234-0.94c-0.032-0.13,0.046-0.262,0.176-0.295c0.128-0.032,0.262,0.046,0.295,0.176
					c0.079,0.313,0.157,0.627,0.234,0.944c0.032,0.13-0.048,0.262-0.178,0.293C261.546,124.934,261.526,124.936,261.508,124.936z
					 M261.031,123.053c-0.108,0-0.206-0.072-0.234-0.182c-0.082-0.315-0.165-0.627-0.249-0.936
					c-0.035-0.129,0.042-0.263,0.171-0.298c0.133-0.038,0.263,0.042,0.298,0.171c0.084,0.311,0.167,0.624,0.249,0.941
					c0.034,0.129-0.044,0.262-0.174,0.295C261.071,123.051,261.051,123.053,261.031,123.053z M260.524,121.179
					c-0.106,0-0.204-0.069-0.233-0.177c-0.088-0.313-0.178-0.623-0.268-0.93c-0.038-0.128,0.035-0.263,0.164-0.301
					c0.128-0.036,0.264,0.036,0.301,0.164c0.092,0.309,0.182,0.62,0.27,0.936c0.036,0.129-0.039,0.263-0.168,0.299
					C260.567,121.176,260.546,121.179,260.524,121.179z M259.976,119.316c-0.103,0-0.199-0.066-0.231-0.171
					c-0.097-0.313-0.193-0.62-0.291-0.924c-0.04-0.128,0.03-0.265,0.157-0.306c0.128-0.04,0.265,0.031,0.306,0.157
					c0.098,0.306,0.194,0.615,0.291,0.93c0.04,0.128-0.032,0.264-0.16,0.303C260.023,119.313,259.999,119.316,259.976,119.316z
					 M259.381,117.469c-0.102,0-0.195-0.064-0.229-0.165c-0.104-0.309-0.209-0.613-0.316-0.914c-0.045-0.126,0.021-0.265,0.147-0.31
					c0.122-0.045,0.265,0.021,0.31,0.147c0.107,0.303,0.214,0.609,0.318,0.922c0.043,0.127-0.025,0.265-0.152,0.307
					C259.433,117.465,259.406,117.469,259.381,117.469z M258.73,115.64c-0.098,0-0.19-0.06-0.227-0.157
					c-0.115-0.305-0.231-0.605-0.35-0.9c-0.049-0.125,0.012-0.266,0.136-0.315c0.123-0.049,0.266,0.012,0.315,0.136
					c0.118,0.299,0.236,0.602,0.352,0.91c0.048,0.125-0.016,0.265-0.142,0.312C258.788,115.635,258.759,115.64,258.73,115.64z
					 M258.01,113.837c-0.094,0-0.184-0.055-0.224-0.147c-0.128-0.301-0.257-0.595-0.388-0.883c-0.056-0.122-0.002-0.266,0.12-0.321
					c0.123-0.054,0.265-0.002,0.321,0.12c0.133,0.292,0.264,0.59,0.394,0.895c0.052,0.123-0.005,0.266-0.129,0.318
					C258.074,113.831,258.042,113.837,258.01,113.837z M257.202,112.071c-0.09,0-0.176-0.05-0.218-0.136
					c-0.144-0.293-0.29-0.579-0.438-0.856c-0.064-0.118-0.019-0.266,0.1-0.328c0.116-0.064,0.264-0.02,0.328,0.1
					c0.151,0.283,0.3,0.573,0.445,0.872c0.059,0.12,0.009,0.266-0.111,0.324C257.274,112.063,257.238,112.071,257.202,112.071z
					 M256.289,110.359c-0.083,0-0.165-0.043-0.21-0.12c-0.164-0.282-0.331-0.555-0.501-0.817c-0.072-0.113-0.04-0.263,0.072-0.336
					c0.113-0.073,0.263-0.039,0.336,0.072c0.174,0.271,0.345,0.549,0.513,0.837c0.067,0.116,0.027,0.265-0.088,0.332
					C256.373,110.35,256.331,110.359,256.289,110.359z M255.235,108.732c-0.075,0-0.149-0.034-0.196-0.101
					c-0.19-0.263-0.384-0.515-0.581-0.756c-0.085-0.104-0.07-0.256,0.034-0.341c0.102-0.084,0.256-0.07,0.341,0.034
					c0.203,0.247,0.402,0.507,0.599,0.779c0.079,0.108,0.055,0.26-0.055,0.338C255.334,108.718,255.285,108.732,255.235,108.732z
					 M254.007,107.238c-0.063,0-0.128-0.024-0.176-0.074c-0.225-0.236-0.454-0.457-0.68-0.656c-0.101-0.088-0.11-0.241-0.021-0.342
					c0.089-0.1,0.242-0.11,0.342-0.021c0.236,0.208,0.476,0.438,0.711,0.684c0.092,0.098,0.089,0.251-0.008,0.344
					C254.127,107.217,254.067,107.238,254.007,107.238z M252.556,105.969c-0.049,0-0.098-0.015-0.141-0.045
					c-0.257-0.183-0.522-0.349-0.789-0.494c-0.118-0.063-0.162-0.211-0.098-0.328c0.064-0.118,0.212-0.164,0.328-0.098
					c0.285,0.154,0.567,0.331,0.84,0.525c0.109,0.077,0.135,0.229,0.057,0.338C252.706,105.934,252.631,105.969,252.556,105.969z
					 M250.87,105.058c-0.028,0-0.058-0.005-0.085-0.016c-0.291-0.108-0.588-0.197-0.884-0.264c-0.131-0.028-0.213-0.158-0.184-0.289
					c0.028-0.131,0.158-0.211,0.289-0.184c0.317,0.07,0.637,0.166,0.948,0.283c0.126,0.047,0.189,0.187,0.142,0.312
					C251.061,104.998,250.968,105.058,250.87,105.058z"/>
				<path style="fill:#407BFF;" d="M283.735,193.924c-0.168,0-0.335-0.006-0.5-0.018c-0.134-0.01-0.234-0.126-0.225-0.26
					c0.011-0.135,0.122-0.232,0.26-0.225c0.153,0.012,0.309,0.018,0.465,0.018c0.134,0,0.242,0.108,0.242,0.242
					C283.978,193.815,283.869,193.924,283.735,193.924z"/>
			</g>
		</g>
	</g>
</g>
<g id="Character_1_">
	<g>
		<path style="fill:#FF8B7B;" d="M135.854,164.625c-2.283,4.025-4.603,8.339-6.696,12.575c-2.123,4.252-4.074,8.565-5.607,12.859
			c-0.211,0.538-0.366,1.069-0.54,1.603l-0.421,1.3c-0.119,0.276-0.181,1.018-0.088,1.881c0.192,1.754,0.847,3.893,1.624,5.993
			c1.606,4.224,3.789,8.616,5.998,12.809l-4.481,3.392c-3.623-3.77-6.764-7.749-9.455-12.422c-1.318-2.361-2.548-4.834-3.311-7.935
			c-0.369-1.556-0.636-3.32-0.332-5.481l0.138-0.811l0.116-0.492l0.233-0.985c0.158-0.655,0.303-1.322,0.492-1.953
			c1.416-5.136,3.31-9.948,5.426-14.612c1.075-2.324,2.172-4.629,3.384-6.871c1.217-2.264,2.39-4.444,3.809-6.716L135.854,164.625z"
			/>
		<path style="fill:#FF8B7B;" d="M128.987,212.122l4.886,2.594l-5.617,6.577c0,0-3.506-2.372-3.664-5.994L128.987,212.122z"/>
		<polygon style="fill:#FF8B7B;" points="140.448,218.77 134.429,223.546 128.257,221.292 133.873,214.716 		"/>
		<path style="fill:#263238;" d="M161.002,123.947c0.12,0.592,0.531,1.007,0.918,0.929c0.387-0.079,0.603-0.622,0.482-1.214
			c-0.12-0.592-0.531-1.007-0.918-0.929C161.098,122.812,160.882,123.355,161.002,123.947z"/>
		<path style="fill:#FF5652;" d="M161.479,124.965c0,0,2.039,3.14,3.855,4.485c-0.848,1.19-2.718,1.105-2.718,1.105L161.479,124.965
			z"/>
		<path style="fill:#FF8B7B;" d="M210.272,163.806l-2.717-6.424l8.925-2.628c0,0,2.226,5.571-1.814,9.23L210.272,163.806z"/>
		<polygon style="fill:#FF8B7B;" points="209.659,150.843 216.372,149.986 216.48,154.754 207.555,157.382 		"/>
		<path style="fill:#263238;" d="M158.168,121.102c-0.086,0-0.173-0.031-0.241-0.094c-0.144-0.133-0.153-0.357-0.019-0.501
			c1.331-1.441,2.947-1.185,3.016-1.173c0.193,0.033,0.323,0.216,0.29,0.409c-0.033,0.193-0.218,0.321-0.407,0.29l0,0
			c-0.053-0.008-1.316-0.194-2.378,0.955C158.359,121.063,158.264,121.102,158.168,121.102z"/>
		<path style="fill:#FF8B7B;" d="M144.572,134.714c1.074,5.476,1.722,13.062-2.109,16.716c0,0,1.497,5.555,11.671,5.555
			c11.188,0,5.382-4.875,5.382-4.875c-4.65-1.443-4.61-6.741-3.546-10.995L144.572,134.714z"/>
		<path style="fill:#263238;" d="M140.367,155.093c-0.996-1.411-0.956-5.869,0.107-6.656c1.717-1.27,9.063-1.562,18.959,0.714
			c-1.066,4.318,1.216,6.582,1.216,6.582L140.367,155.093z"/>
		<path style="fill:#407BFF;" d="M164.433,408.979c0.961,0,1.889-0.132,2.199-0.564c0.109-0.151,0.195-0.408-0.015-0.775
			c-0.117-0.206-0.307-0.345-0.562-0.415c-1.246-0.339-3.861,1.152-3.972,1.216c-0.064,0.037-0.098,0.11-0.087,0.182
			c0.012,0.073,0.068,0.131,0.14,0.145C162.615,408.864,163.538,408.979,164.433,408.979z M165.62,407.527
			c0.125,0,0.24,0.013,0.343,0.041c0.164,0.044,0.277,0.126,0.347,0.248c0.125,0.22,0.08,0.329,0.034,0.392
			c-0.348,0.484-2.24,0.495-3.632,0.298C163.407,408.15,164.746,407.527,165.62,407.527z"/>
		<path style="fill:#407BFF;" d="M162.172,408.772c0.025,0,0.049-0.005,0.073-0.016c0.903-0.405,2.693-2.024,2.556-2.87
			c-0.032-0.199-0.173-0.446-0.66-0.496c-0.364-0.037-0.693,0.066-0.983,0.304c-0.952,0.782-1.154,2.798-1.162,2.884
			c-0.006,0.063,0.022,0.124,0.073,0.161C162.1,408.761,162.136,408.772,162.172,408.772z M163.998,405.738
			c0.035,0,0.071,0.002,0.107,0.005c0.319,0.032,0.339,0.158,0.346,0.199c0.082,0.508-1.134,1.78-2.056,2.334
			c0.096-0.589,0.363-1.795,0.988-2.308C163.571,405.813,163.773,405.738,163.998,405.738z"/>
		<polygon style="fill:#FF8B7B;" points="153.942,408.595 161.427,408.595 162.172,391.261 154.687,391.261 		"/>
		<path style="fill:#263238;" d="M161.377,407.728h-8.174c-0.306,0-0.571,0.212-0.637,0.511l-1.479,6.653
			c-0.153,0.69,0.37,1.343,1.077,1.331c2.949-0.05,7.209-0.223,10.915-0.223c4.333,0,7.064,0.236,12.146,0.236
			c3.073,0,3.926-3.107,2.639-3.388c-5.855-1.281-9.625-1.418-14.685-4.538C162.63,407.972,162.023,407.728,161.377,407.728z"/>
		<g>
			<path style="fill:#407BFF;" d="M129.061,153.123c-7.015,1.608-11.857,20.326-11.857,20.326l13.145,9.928
				c0,0,5.17-4.875,7.472-13.833C140.232,160.158,136.234,151.479,129.061,153.123z"/>
			<path style="opacity:0.4;fill:#FFFFFF;" d="M129.061,153.123c-7.015,1.608-11.857,20.326-11.857,20.326l13.145,9.928
				c0,0,5.17-4.875,7.472-13.833C140.232,160.158,136.234,151.479,129.061,153.123z"/>
		</g>
		<path style="fill:#FF8B7B;" d="M170.28,158.51c3.955,4.396,7.852,8.825,11.788,13.058c1.956,2.116,3.958,4.161,5.939,6.023
			c0.991,0.923,1.991,1.79,2.949,2.509c0.946,0.721,1.9,1.291,2.408,1.5c0.243,0.106,0.293,0.089,0.089,0.133
			c-0.106,0.015-0.246,0.066-0.372,0.133c-0.031,0.012-0.061,0.028-0.088,0.048l-0.039,0.033l0.091-0.048l0.403-0.217
			c1.08-0.569,2.129-1.226,3.141-1.966c2.027-1.473,3.894-3.292,5.611-5.316c1.707-2.038,3.243-4.301,4.625-6.699
			c0.676-1.205,1.35-2.43,1.952-3.691c0.59-1.237,1.171-2.607,1.631-3.763l5.495,1.179c-0.214,1.742-0.531,3.214-0.926,4.784
			c-0.394,1.542-0.842,3.076-1.401,4.577c-1.093,3.012-2.509,5.948-4.278,8.741c-1.787,2.779-3.922,5.431-6.51,7.721
			c-1.277,1.159-2.661,2.231-4.149,3.165l-0.555,0.356l-0.15,0.094l-0.29,0.153l-0.592,0.288c-0.4,0.18-0.829,0.312-1.252,0.442
			c-0.42,0.103-0.851,0.187-1.273,0.244c-1.689,0.192-3.137-0.075-4.309-0.415c-2.327-0.723-3.947-1.714-5.43-2.7
			c-1.475-0.995-2.774-2.024-4.015-3.066c-2.481-2.078-4.683-4.252-6.853-6.422c-4.287-4.371-8.286-8.852-12.176-13.404
			L170.28,158.51z"/>
		<path style="opacity:0.2;" d="M135.073,166.293c-3.811,3.77-5.053,10.637-5.349,16.607l0.621,0.479c0,0,5.176-4.88,7.479-13.836
			c0.143-0.56,0.265-1.121,0.367-1.671L135.073,166.293z"/>
		<path style="fill:#263238;" d="M116.701,172.43l-0.276,0.723c-0.16,0.419-0.025,0.893,0.332,1.165l12.572,9.564
			c0.434,0.33,1.051,0.257,1.395-0.166l0.05-0.062c0.35-0.43,0.289-1.063-0.139-1.416l-12.346-10.226
			C117.757,171.572,116.948,171.784,116.701,172.43z"/>
		<g>
			<path style="fill:#407BFF;" d="M173.391,160.628c1.53,8.086,2.487,24.692-1.954,57.576h-40.034
				c-0.276-6.145,3.586-36.124-2.342-65.081c0,0,6.862-1.377,13.402-1.692c5.115-0.247,12.521-0.41,17.018,0.001
				c1.877,0.171,3.72,0.442,5.361,0.733C169.171,152.93,172.574,156.308,173.391,160.628z"/>
			<path style="opacity:0.4;fill:#FFFFFF;" d="M173.391,160.628c1.53,8.086,2.487,24.692-1.954,57.576h-40.034
				c-0.276-6.145,3.586-36.124-2.342-65.081c0,0,6.862-1.377,13.402-1.692c5.115-0.247,12.521-0.41,17.018,0.001
				c1.877,0.171,3.72,0.442,5.361,0.733C169.171,152.93,172.574,156.308,173.391,160.628z"/>
		</g>
		<path style="opacity:0.2;" d="M167.265,172.579l7.234-1.732c0.224,4.381,0.245,9.812-0.081,16.526
			C171.086,183.583,166.837,177.674,167.265,172.579z"/>
		<g>
			<polygon style="opacity:0.2;" points="162.17,391.266 161.788,400.2 154.299,400.2 154.682,391.266 			"/>
		</g>
		<path style="fill:#FF8B7B;" d="M141.014,126.703c1.923,7.175,2.684,11.473,7.112,14.456c6.66,4.488,14.953-0.663,15.212-8.268
			c0.234-6.845-2.95-17.429-10.65-18.875C145.102,112.592,139.091,119.528,141.014,126.703z"/>
		<path style="fill:#263238;" d="M157.597,128.33c0.946-1.555,0.65-8.17-0.946-10.095c2.43,0,5.051-2.206,3.998-5.088
			c-1.844-5.047-7.959-3.636-12.866-1.153c-3.984,2.016-8.475,5.669-12.539,6.623c-0.975,0.229-1.209,1.497-0.391,2.074
			c0.948,0.668,1.608,1.028,1.608,1.028s-1.655,3.636,0.946,7.922s5.498,7.39,3.902,9.4c3.961,2.69,10.464,2.808,10.878-2.01
			C152.601,132.214,159.991,131.778,157.597,128.33z"/>
		<path style="fill:#263238;" d="M136.375,116.413c-0.782,0-1.539-0.103-2.261-0.337c-0.559-0.181-0.864-0.781-0.683-1.341
			c0.181-0.558,0.778-0.87,1.341-0.683c2.446,0.79,5.943-0.601,9.324-1.952c1.409-0.563,2.866-1.146,4.228-1.555
			c2.842-0.853,6.805-1.541,9.536,0.021c1.376,0.788,2.281,2.037,2.69,3.714c0.139,0.57-0.211,1.147-0.782,1.286
			c-0.57,0.137-1.146-0.211-1.286-0.782c-0.269-1.102-0.818-1.877-1.68-2.37c-1.619-0.928-4.413-0.867-7.867,0.171
			c-1.271,0.381-2.62,0.921-4.05,1.491C142.001,115.229,139.04,116.413,136.375,116.413z"/>
		<path style="fill:#FF8B7B;" d="M154.401,127.273c0.116,1.942,1.018,3.77,2.102,4.965c1.632,1.798,3.334,0.679,3.624-1.511
			c0.26-1.971-0.275-5.281-2.27-6.272C155.892,123.478,154.269,125.053,154.401,127.273z"/>
		<path style="fill:#407BFF;" d="M98.326,406.395c0.006-0.961-0.12-1.889-0.55-2.203c-0.15-0.11-0.407-0.197-0.775,0.01
			c-0.207,0.116-0.347,0.304-0.418,0.559c-0.347,1.244,1.127,3.869,1.19,3.98c0.036,0.064,0.109,0.099,0.182,0.088
			c0.073-0.011,0.131-0.067,0.146-0.139C98.2,408.213,98.32,407.29,98.326,406.395z M96.882,405.199
			c0.001-0.125,0.014-0.24,0.043-0.342c0.046-0.163,0.127-0.276,0.25-0.346c0.221-0.124,0.33-0.077,0.392-0.032
			c0.482,0.351,0.481,2.243,0.275,3.634C97.491,407.416,96.877,406.073,96.882,405.199z"/>
		<path style="fill:#407BFF;" d="M98.105,408.655c0-0.025-0.005-0.049-0.015-0.073c-0.4-0.906-2.007-2.706-2.854-2.574
			c-0.199,0.031-0.447,0.17-0.5,0.657c-0.039,0.363,0.061,0.693,0.298,0.985c0.776,0.957,2.791,1.172,2.876,1.181
			c0.063,0.006,0.124-0.021,0.161-0.072C98.093,408.727,98.105,408.691,98.105,408.655z M95.082,406.809
			c0-0.035,0.002-0.071,0.006-0.106c0.034-0.319,0.16-0.338,0.201-0.345c0.508-0.079,1.773,1.145,2.321,2.071
			c-0.588-0.1-1.793-0.374-2.302-1.003C95.155,407.237,95.081,407.034,95.082,406.809z"/>
		<polygon style="fill:#FF8B7B;" points="97.992,408.704 105.296,409.221 109.399,391.749 102.095,391.232 		"/>
		<path style="fill:#263238;" d="M98.016,407.026l8.142-0.721c0.305-0.027,0.587,0.161,0.68,0.453l2.059,6.497
			c0.214,0.673-0.25,1.371-0.955,1.421c-2.941,0.21-7.201,0.413-10.893,0.74c-4.316,0.382-1.521,0.372-6.583,0.82
			c-3.061,0.271-4.184-2.748-2.928-3.142c5.72-1.792,6.755-3.03,8.732-5.329C96.693,407.276,97.373,407.083,98.016,407.026z"/>
		<g>
			<polygon style="opacity:0.2;" points="109.396,391.754 107.283,400.76 99.976,400.243 102.089,391.236 			"/>
		</g>
		<path style="fill:#263238;" d="M157.235,218.203c0,0-13.227,57.493-18.278,78.834c-5.531,23.371-27.369,100.904-27.369,100.904
			l-13.399-2.901c0,0,13.398-63.559,18.278-96.283c3.749-25.137,14.935-80.554,14.935-80.554H157.235z"/>
		<path style="fill:#407BFF;" d="M113.987,393.86c0.06,0.007-1.298,5.155-1.298,5.155l-15.874-1.705l0.072-4.717L113.987,393.86z"/>
		<path style="opacity:0.3;" d="M149.548,244.849c-9.439,1.256-10.929,34.457-11.003,53.941c0.138-0.617,0.287-1.203,0.415-1.756
			c2.756-11.652,7.949-34.106,12.099-52.079C150.602,244.807,150.091,244.775,149.548,244.849z"/>
		<path style="fill:#263238;" d="M171.437,218.203c0,0-0.964,55.963-1.778,78.788c-0.847,23.742-5.083,101.479-5.083,101.479h-12.68
			c0,0-4.522-76.35-5.086-99.667c-0.615-25.419-1.69-80.6-1.69-80.6H171.437z"/>
		<path style="fill:#407BFF;" d="M167.016,393.42c0.059,0-0.715,5.264-0.715,5.264h-15.424l-0.417-4.698L167.016,393.42z"/>
		<g>
			<path style="fill:#407BFF;" d="M157.702,163.083c-3.589,9.672,18.167,21.392,18.167,21.392l8.458-12.063
				c0,0-6.09-12.121-13.563-17.585C161.532,148.078,160.434,155.72,157.702,163.083z"/>
			<path style="opacity:0.4;fill:#FFFFFF;" d="M157.702,163.083c-3.589,9.672,18.167,21.392,18.167,21.392l8.458-12.063
				c0,0-6.09-12.121-13.563-17.585C161.532,148.078,160.434,155.72,157.702,163.083z"/>
		</g>
		<path style="fill:#263238;" d="M184.49,171.341l0.466,0.618c0.27,0.358,0.271,0.851,0.003,1.211l-8.518,11.445
			c-0.301,0.404-0.853,0.525-1.295,0.283l-0.126-0.069c-0.524-0.286-0.687-0.962-0.35-1.456l8.178-11.994
			C183.238,170.808,184.074,170.788,184.49,171.341z"/>
	</g>
</g>
</svg>
